<svg width="49" height="13" viewBox="0 0 49 13" fill="none" xmlns="http://www.w3.org/2000/svg">
<path d="M41.2725 12.5016L40.9179 12.1515C40.6829 11.9195 40.6829 11.5433 40.9179 11.3112L45.1266 7.17956H0.601688C0.269363 7.17956 -7.62939e-05 6.91352 -7.62939e-05 6.58539V6.09024C-7.62939e-05 5.76211 0.269363 5.49607 0.601688 5.49607H45.1266L40.9179 1.36439C40.6829 1.13237 40.6829 0.756159 40.9179 0.524085L41.2725 0.174018C41.5075 -0.0580061 41.8885 -0.0580061 42.1235 0.174018L47.9649 5.91769C48.1999 6.14971 48.1999 6.52592 47.9649 6.758L42.1235 12.5017C41.8885 12.7337 41.5075 12.7337 41.2725 12.5016Z" fill="#A6631B"/>
</svg>
