<?xml version="1.0" encoding="utf-8"?>
<!-- Generator: Adobe Illustrator 24.0.1, SVG Export Plug-In . SVG Version: 6.00 Build 0)  -->
<svg version="1.1" id="Layer_1" xmlns="http://www.w3.org/2000/svg" xmlns:xlink="http://www.w3.org/1999/xlink" x="0px" y="0px"
	 viewBox="0 0 180.38 63.16" style="enable-background:new 0 0 180.38 63.16;" xml:space="preserve">
<style type="text/css">
	.st0{fill:#6D5952;}
</style>
<g>
	<path class="st0" d="M86.18,55.32c0,4.37,0.73,5.75,3.16,7.37v0.24l-12.63-2.51c0,0,0.08,0,0.08-0.08
		c-2.59,1.38-5.83,2.19-9.64,2.19c-11.26,0-19.52-6.88-19.52-18.63c0-11.66,8.26-21.71,25.11-21.71c2.11,0,4.13,0.16,5.99,0.49V9.93
		c-0.21-3.18-2.56-3.13-2.56-3.13L86.59,0C86.59,0,86.27,6.97,86.18,55.32z M71.85,60.26c3.16,0,5.1-1.05,6.72-2.83
		c0.08-0.81,0.16-1.86,0.16-3.16V28.19c-2.43-2.59-5.59-4.45-10.04-4.45c-8.34,0-13.2,6.24-13.2,15.79
		C55.49,51.11,62.53,60.26,71.85,60.26z"/>
	<g>
		<path class="st0" d="M41.71,62.91v0.24l-12.63-2.51c0,0,0.08,0,0.08-0.08c-2.59,1.38-5.83,2.19-9.64,2.19
			C8.26,62.75,0,55.87,0,44.12c0-11.66,8.26-21.71,25.11-21.71c5.18,0,9.4,0.97,13.45,3v30.13C38.55,59.92,39.28,61.29,41.71,62.91z
			 M24.22,60.48c3.16,0,5.1-1.05,6.72-2.83c0.08-0.81,0.16-1.86,0.16-3.16V28.41c-2.43-2.59-5.59-4.45-10.04-4.45
			c-8.34,0-13.2,6.24-13.2,15.79C7.86,51.33,14.9,60.48,24.22,60.48z"/>
		<path class="st0" d="M133,54.41c-2.43,4.54-8.99,8.34-17.33,8.34c-11.26,0-20.49-7.05-20.49-19.28
			c0-13.04,10.69-21.06,22.44-21.06c16.85,0,18.71,17.25,8.59,17.25h-23.17c0.08,11.1,6.4,19.52,16.12,19.52
			c4.29,0,10.93-1.62,13.45-5.1L133,54.41z M103.03,38.37l19.92-0.24c4.94-0.08,2.27-14.25-8.26-14.25
			C108.13,23.87,103.43,29.22,103.03,38.37z"/>
		<path class="st0" d="M180.38,62.91v0.24l-12.63-2.51c0,0,0.08,0,0.08-0.08c-2.59,1.38-5.83,2.19-9.64,2.19
			c-11.26,0-19.52-6.88-19.52-18.63c0-11.66,8.26-21.71,25.11-21.71c5.18,0,9.4,0.97,13.45,3v30.13
			C177.22,59.92,177.95,61.29,180.38,62.91z M162.88,60.48c3.16,0,5.1-1.05,6.72-2.83c0.08-0.81,0.16-1.86,0.16-3.16V28.41
			c-2.43-2.59-5.59-4.45-10.04-4.45c-8.34,0-13.2,6.24-13.2,15.79C146.52,51.33,153.57,60.48,162.88,60.48z"/>
	</g>
</g>
</svg>
