<?xml version="1.0" standalone="no"?>
<!DOCTYPE svg PUBLIC "-//W3C//DTD SVG 1.1//EN" "http://www.w3.org/Graphics/SVG/1.1/DTD/svg11.dtd" >
<svg xmlns="http://www.w3.org/2000/svg" xmlns:xlink="http://www.w3.org/1999/xlink" version="1.1">
<metadata>
Created by FontForge 20170731 at Thu Sep 17 17:11:47 2020
 By Aleksey,,,
Copyright (c) 2020 by Max Duy T..
</metadata>
<defs>
<font id="HVClio-Regular" horiz-adv-x="0" >
  <font-face 
    font-family="HV Clio"
    font-weight="400"
    font-stretch="normal"
    units-per-em="1000"
    panose-1="0 0 5 0 0 0 0 0 0 0"
    ascent="800"
    descent="-200"
    x-height="500"
    cap-height="700"
    bbox="-710 -289 1148 921"
    underline-thickness="50"
    underline-position="-200"
    unicode-range="U+0020-2212"
  />
<missing-glyph horiz-adv-x="100" 
 />
    <glyph glyph-name="f_f" unicode="ff" horiz-adv-x="698" 
d="M522 758q44 0 78.5 -18t47.5 -38q-13 -13 -25.5 -15.5t-17.5 8.5q-26 57 -83 56q-51 -2 -80.5 -43.5t-29.5 -117.5v-90h128v-6h-128v-494h-55v494h-189v-494h-55v494h-63v6h63v54q0 104 47 154t118 50q42 0 76 -16.5t48 -36.5q44 53 120 53zM168 500h189v54q0 55 14 95
q2 37 -25 70t-68 32q-51 -2 -80.5 -43.5t-29.5 -117.5v-90z" />
    <glyph glyph-name="f_f_i" unicode="ffi" horiz-adv-x="706" 
d="M651 702q-13 -13 -25.5 -15.5t-17.5 8.5q-26 57 -83 56q-51 -2 -80.5 -43.5t-29.5 -117.5v-90h75v-6h-75v-494h-55v494h-192v-494h-55v494h-63v6h63v54q0 104 47 154t118 50q43 0 77 -17.5t48 -37.5q44 55 122 55q44 0 78.5 -18t47.5 -38zM168 500h192v54q0 50 12 88
q-1 2 -1 7q2 37 -25 70t-68 32q-51 -2 -80.5 -43.5t-29.5 -117.5v-90zM601 500h55v-500h-55v500z" />
    <glyph glyph-name="f_f_l" unicode="ffl" horiz-adv-x="725" 
d="M669 42l6 -42h-61v657q0 52 -27 74t-66 20q-51 -2 -80.5 -43.5t-29.5 -117.5v-90h127v-6h-127v-494h-55v494h-188v-494h-55v494h-63v6h63v54q0 104 47 154t118 50q42 0 75.5 -16.5t47.5 -35.5q45 52 120 52q22 0 44 -5.5t47 -18.5t41 -41.5t16 -68.5v-582zM356 500v54
q0 58 15 98q1 37 -26 68.5t-67 30.5q-51 -2 -80.5 -43.5t-29.5 -117.5v-90h188z" />
    <glyph glyph-name="f_i" unicode="fi" horiz-adv-x="451" 
d="M404 702q-13 -13 -25.5 -15.5t-17.5 8.5q-26 57 -83 56q-51 -2 -80.5 -43.5t-29.5 -117.5v-90h77v-6h-77v-494h-55v494h-63v6h63v54q0 104 47 154t118 50q44 0 78.5 -18t47.5 -38zM356 500h55v-500h-55v500z" />
    <glyph glyph-name=".notdef" horiz-adv-x="100" 
 />
    <glyph glyph-name=".null" 
 />
    <glyph glyph-name="nonmarkingreturn" horiz-adv-x="333" 
 />
    <glyph glyph-name="space" unicode=" " horiz-adv-x="401" 
 />
    <glyph glyph-name="exclam" unicode="!" horiz-adv-x="327" 
d="M198 169l-7 -3l-8 3l-20 551h55zM188 0q-16 0 -27 11.5t-11 27.5t11 27.5t27 11.5t27.5 -11.5t11.5 -27.5q0 -17 -11.5 -28t-27.5 -11z" />
    <glyph glyph-name="quotedbl" unicode="&#x22;" horiz-adv-x="309" 
d="M134 683q16 0 27.5 -8t11.5 -25q2 -38 -17 -68.5t-52 -30.5q-6 4 1 8q6 7 7.5 18t0.5 17t-5 21.5t-5 18.5q-3 6 -3 15v2q0 32 34 32zM279 650q2 -38 -17 -68.5t-52 -30.5q-6 4 1 8q6 7 7.5 18t0.5 17t-5 21.5t-5 18.5q-3 6 -3 15v2q0 32 34 32q16 0 27.5 -8t11.5 -25z
" />
    <glyph glyph-name="numbersign" unicode="#" horiz-adv-x="769" 
d="M719 488v-9h-147l-94 -238h153v-9h-157l-92 -232h-10l91 232h-261l-92 -232h-10l91 232h-171v9h175l94 238h-181v9h184l84 212h12l-84 -212h260l84 212h12l-84 -212h143zM206 241h261l94 238h-261z" />
    <glyph glyph-name="dollar" unicode="$" horiz-adv-x="521" 
d="M459 257q34 -77 -23.5 -137.5t-167.5 -65.5v-104h-16v104h-12q-61 2 -112 29t-78 73q20 20 36.5 17.5t22.5 -26.5q26 -79 132 -82h11v268q-37 16 -58.5 26t-51 27.5t-45.5 34t-27.5 40t-10.5 49.5q3 61 57.5 98.5t135.5 35.5v106h16v-107q80 -6 143 -63q-26 -30 -46 1
q-31 46 -97 51v-249q40 -15 61 -23.5t51.5 -24.5t49 -35t29.5 -43zM92 528q-2 -51 38.5 -80.5t121.5 -58.5v243q-67 1 -111.5 -28t-48.5 -76zM268 326v-261q83 5 127 51.5t21 106.5q-11 30 -47.5 53t-100.5 50z" />
    <glyph glyph-name="percent" unicode="%" horiz-adv-x="672" 
d="M190 453q-55 0 -97.5 37t-42.5 90t42.5 90t97.5 37q57 0 99 -36.5t43 -90.5q1 -53 -42 -90t-100 -37zM268 484q30 24 28.5 70t-34.5 85q-34 40 -77.5 49.5t-72.5 -15.5q-28 -22 -26 -67t35 -85q32 -40 76.5 -50.5t70.5 13.5zM117 0h-9l442 694h10zM480 -8
q-56 0 -98.5 36.5t-42.5 90.5t42.5 90.5t98.5 36.5t99 -37t43 -90t-43 -90t-99 -37zM558 24q30 24 28 69.5t-35 84.5q-33 40 -77 50t-72 -15q-29 -23 -26.5 -67.5t35.5 -85.5q32 -41 76 -51t71 15z" />
    <glyph glyph-name="ampersand" unicode="&#x26;" horiz-adv-x="681" 
d="M299 -7q-83 0 -145 36.5t-87.5 90t-11.5 118t72 117.5q62 58 138 113l-20 32q-50 80 -24.5 144.5t106.5 64.5q59 0 92 -29.5t29 -75.5t-45 -89q-63 -61 -97 -86l193 -315q45 83 11 158q-6 11 -3 20t12 8l47 -12q0 -49 -18.5 -102.5t-41.5 -83.5l61 -102h-15l-53 91
q-69 -98 -200 -98zM255 502l18 -28q25 17 111 85q61 49 42.5 95.5t-99.5 46.5q-76 0 -97.5 -61.5t25.5 -137.5zM299 10q66 0 112 20.5t81 70.5l-194 321q-65 -50 -135 -124q-39 -42 -46.5 -93.5t12.5 -94t65.5 -71.5t104.5 -29z" />
    <glyph glyph-name="quotesingle" unicode="'" horiz-adv-x="233" 
d="M173 650q2 -38 -17 -68.5t-52 -30.5q-6 4 1 8q6 7 7.5 18t0.5 17t-5 21.5t-5 18.5q-3 6 -3 15v2q0 32 34 32q16 0 27.5 -8t11.5 -25z" />
    <glyph glyph-name="parenleft" unicode="(" horiz-adv-x="345" 
d="M280 -88l1 -12q-95 35 -158 165t-63 290q0 162 63 289t158 156l4 -9q-74 -29 -123 -153.5t-48 -282.5q4 -153 51.5 -280t114.5 -163z" />
    <glyph glyph-name="parenright" unicode=")" horiz-adv-x="345" 
d="M64 -100l1 12q67 36 114.5 163t51.5 280q1 158 -48 282.5t-123 153.5l4 9q95 -29 158 -156t63 -289q0 -160 -63 -290t-158 -165z" />
    <glyph glyph-name="asterisk" unicode="*" horiz-adv-x="238" 
d="M173 553l-39 -23l-15 64l-15 -63l-39 22l1 1l46 41l-62 -16l1 44l61 -22l-47 48l39 23q2 0 15 -72l15 71l39 -22q0 -2 -47 -49l62 23l-1 -44l-61 16z" />
    <glyph glyph-name="plus" unicode="+" horiz-adv-x="560" 
d="M288 170h-15v183h-183v15h183v182h15v-182h182v-15h-182v-183z" />
    <glyph glyph-name="comma" unicode="," horiz-adv-x="273" 
d="M173 12q2 -34 -19 -65.5t-51 -31.5q-4 3 1 7q7 8 9 20t1.5 21.5t-3 24.5t-2.5 20v2v1v2q0 28 30 28q34 0 34 -29z" />
    <glyph glyph-name="hyphen" unicode="-" horiz-adv-x="1051" 
d="M851 282h-651v16h651v-16z" />
    <glyph glyph-name="period" unicode="." horiz-adv-x="289" 
d="M144 1q-18 0 -31 12.5t-13 29.5t13 29.5t31 12.5q19 0 32 -12.5t13 -29.5t-13 -29.5t-32 -12.5z" />
    <glyph glyph-name="slash" unicode="/" horiz-adv-x="488" 
d="M60 -100h-10l376 900h12z" />
    <glyph glyph-name="zero" unicode="0" horiz-adv-x="716" 
d="M358 -10q-128 0 -213 105.5t-85 263.5q0 156 85 256.5t213 100.5t213 -100.5t85 -256.5q0 -158 -85 -263.5t-213 -105.5zM489 45q91 50 116 173t-29 264q-56 137 -155.5 187.5t-193.5 -5.5q-91 -50 -116 -169t29 -261q55 -139 153.5 -192t195.5 3z" />
    <glyph glyph-name="one" unicode="1" horiz-adv-x="282" 
d="M167 0v627l-107 -41l1 8l155 119h6v-713h-55z" />
    <glyph glyph-name="two" unicode="2" horiz-adv-x="577" 
d="M443 380q-45 -44 -111.5 -95.5t-103.5 -81t-67 -79.5t-32 -113h380v-11h-449q0 24 3 45q7 51 31.5 92.5t64.5 75t81 61t94 65t91 72.5q33 30 42 80t-5 96.5t-58 80.5t-109 34q-96 0 -138 -80q-12 -21 -26.5 -17.5t-24.5 29.5q77 83 189 80q75 -2 130.5 -34t78 -79.5
t8 -107t-68.5 -113.5z" />
    <glyph glyph-name="three" unicode="3" horiz-adv-x="604" 
d="M308 -14q-76 -2 -141.5 21t-106.5 67q25 25 36.5 28.5t25.5 -14.5q56 -90 178 -90q76 0 126 56t50 143q0 106 -74.5 161t-207.5 47q-3 -1 -9 -1t-9 -1v17q103 5 160.5 45.5t58.5 109.5q1 59 -32.5 93t-88.5 34q-77 0 -120 -65q-7 -11 -26.5 -9.5t-41.5 15.5q62 70 190 70
q83 0 136 -37.5t53 -100.5q0 -50 -50.5 -92t-140.5 -68q128 -17 199 -73.5t71 -140.5q0 -89 -67.5 -150.5t-168.5 -64.5z" />
    <glyph glyph-name="four" unicode="4" horiz-adv-x="641" 
d="M478 0h-55v137h-363l2 4l373 569h43v-562h103v-11h-103v-137zM423 663l-336 -515h336v515z" />
    <glyph glyph-name="five" unicode="5" horiz-adv-x="604" 
d="M308 -4q-162 -6 -248 88q15 28 31 35t24 -10q54 -101 185 -101q76 0 126 56t50 143q0 140 -113 190t-277 -10l68 313h323v-49h-315l-59 -246q205 60 323 6t118 -200q0 -89 -67.5 -150.5t-168.5 -64.5z" />
    <glyph glyph-name="six" unicode="6" horiz-adv-x="599" 
d="M306 -5q-92 0 -159 59t-82 153q-16 102 12.5 211t102 197t174.5 114l2 -12q-192 -80 -219 -322q58 68 169 68q101 0 167 -66t66 -169q0 -101 -66.5 -167t-166.5 -66zM341 9q46 8 77 35.5t42 63t14.5 76t-5.5 75.5q-7 39 -20.5 73t-36 65t-59 45t-82.5 6t-77 -35.5
t-42 -63t-14.5 -76t5.5 -76.5q7 -39 20 -72.5t36 -64.5t59.5 -45t82.5 -6z" />
    <glyph glyph-name="seven" unicode="7" horiz-adv-x="586" 
d="M228 0h-56q0 215 76.5 373.5t217.5 287.5h-406v49h466q-47 -58 -67 -84t-59.5 -81t-58 -90t-45 -92.5t-38 -108t-21 -116.5t-9.5 -138z" />
    <glyph glyph-name="eight" unicode="8" horiz-adv-x="662" 
d="M381 396q111 -41 166 -87.5t55 -109.5q0 -86 -76.5 -147t-189.5 -61q-120 0 -198 55.5t-78 145.5q0 70 56.5 119.5t158.5 68.5q-80 34 -120.5 86.5t-32.5 108.5q9 65 66 103.5t148 38.5q94 0 150 -42t61 -112q5 -52 -39 -97.5t-127 -69.5zM180 585q0 -55 40 -102t109 -69
q22 -7 37 -13q75 28 113 75.5t28 96.5q-12 64 -56.5 99.5t-114.5 35.5q-75 0 -115.5 -32.5t-40.5 -90.5zM336 2q95 0 155.5 51t54.5 124q-5 56 -64 105t-161 81q-11 3 -31 11q-99 -26 -147 -81.5t-35 -131.5q12 -73 76.5 -116t151.5 -43z" />
    <glyph glyph-name="nine" unicode="9" horiz-adv-x="599" 
d="M245 -15l-2 12q192 80 219 322q-58 -68 -169 -68q-101 0 -167 66t-66 169q0 100 66 161.5t167 61.5q93 0 159.5 -54.5t81.5 -147.5q16 -102 -12.5 -211t-102 -197t-174.5 -114zM338 269q46 8 75.5 35t38.5 62t11 75t-7 76q-17 97 -69.5 143.5t-129.5 33.5
q-78 -14 -111.5 -76.5t-15.5 -162.5q7 -38 22 -72.5t39.5 -64t62.5 -43.5t84 -6z" />
    <glyph glyph-name="colon" unicode=":" horiz-adv-x="373" 
d="M236 375q-15 0 -25.5 9.5t-10.5 22.5t10.5 22.5t25.5 9.5q16 0 26.5 -9t10.5 -23q0 -13 -10.5 -22.5t-26.5 -9.5zM236 175q-15 0 -25.5 9.5t-10.5 22.5t10.5 22.5t25.5 9.5q16 0 26.5 -9t10.5 -23q0 -13 -10.5 -22.5t-26.5 -9.5z" />
    <glyph glyph-name="semicolon" unicode=";" horiz-adv-x="389" 
d="M244 168q-15 0 -26 11t-11 25q0 15 11 25.5t26 10.5q16 0 27 -10.5t11 -25.5t-11 -25.5t-27 -10.5zM282 3q1 -34 -18.5 -66.5t-49.5 -32.5q-6 3 1 6q5 7 5.5 19t-1 20t-6 25t-5.5 20q0 1 -0.5 3.5t-0.5 4.5v1q0 15 11 25.5t26 10.5q16 0 27 -10.5t11 -25.5z" />
    <glyph glyph-name="less" unicode="&#x3c;" horiz-adv-x="328" 
d="M278 83h-18l-207 167q-9 7 0 16l207 167h18l-166 -175z" />
    <glyph glyph-name="greater" unicode="&#x3e;" horiz-adv-x="328" 
d="M68 83h-18l166 175l-166 175h18l207 -167q9 -9 0 -16z" />
    <glyph glyph-name="question" unicode="?" horiz-adv-x="552" 
d="M237 158h-10q-3 23 -5 40t5 37t13 34.5t19.5 32t24.5 30t27.5 29t29.5 28t30 27t28 26.5q31 31 40.5 79t-3 92.5t-55 76.5t-107.5 32q-67 0 -107.5 -39t-60.5 -125q-4 -19 -24 -8q-33 17 -32.5 41.5t35.5 62.5q77 83 189 80q60 -2 110 -26t78 -62.5t37.5 -83.5t-10.5 -94
t-67 -88q-22 -18 -62 -50t-54.5 -45t-35 -35.5t-27 -43.5t-6.5 -48zM236 0q-16 0 -27 11.5t-11 27.5t11 27.5t27 11.5t27.5 -11.5t11.5 -27.5q0 -17 -11.5 -28t-27.5 -11z" />
    <glyph glyph-name="at" unicode="@" horiz-adv-x="965" 
d="M396 189q92 39 222 39v48q0 60 -36.5 91.5t-103.5 31.5q-71 0 -95 -46q-5 -10 -18.5 -9t-28.5 12q62 56 142 56q92 0 143.5 -45.5t51.5 -126.5v-188q0 -78 11 -104.5t47 -26.5q74 6 120.5 77t46.5 163q0 117 -57 213t-149 148t-197 52q-104 0 -202.5 -55.5t-161.5 -155
t-63 -214.5q0 -87 37.5 -167t97.5 -136t137 -89t155 -33q82 0 156 29.5t125 86.5l13 -15q-128 -114 -294 -114q-115 0 -217.5 58.5t-165 160.5t-62.5 220t62.5 219.5t165 160t217.5 58.5q171 0 291 -113t129 -285q0 -76 -18 -133t-47 -87.5t-58.5 -46t-60.5 -18.5
q-65 -7 -89 14t-24 88v-12q-25 -46 -77 -72t-105 -26t-97.5 27.5t-55.5 79.5q-10 51 16 103t97 82zM618 12v202q-73 0 -111 -8t-77 -28q-115 -61 -101 -161q6 -42 42 -65.5t81 -24t92 21.5t74 63z" />
    <glyph glyph-name="A" unicode="A" horiz-adv-x="668" 
d="M617 0h-60l-96 242h-301l-93 -242h-17l270 700h21zM309 628l-144 -375h292z" />
    <glyph glyph-name="B" unicode="B" horiz-adv-x="574" 
d="M317 424q114 -9 169 -80.5t31 -187.5q-19 -90 -115.5 -125.5t-299.5 -30.5h-52v700h53q16 0 52.5 1t59 1t57 -2t57 -6.5t49 -14t43 -23t29.5 -35.5t17 -50q7 -57 -30.5 -91.5t-119.5 -55.5zM419 585q-3 25 -15.5 43.5t-33 29t-47 17t-56.5 8.5t-62 3t-64 0h-36v-282
q172 26 247 63.5t67 117.5zM459 182q22 103 -37 165t-175 63q-70 -12 -142 -20v-376q173 0 252.5 36t101.5 132z" />
    <glyph glyph-name="C" unicode="C" horiz-adv-x="708" 
d="M379 -18q-145 12 -239 121t-90 260q4 145 97.5 245t229.5 104q62 4 138.5 -21.5t130.5 -68.5l-31 -41q-19 -15 -27 8q-18 47 -76.5 78t-128.5 31q-114 0 -190 -102t-76 -255q0 -128 75 -222.5t187 -109.5q67 -10 139.5 24t113.5 96q9 17 22 11q8 -5 -4 -19
q-41 -64 -118.5 -103.5t-152.5 -35.5z" />
    <glyph glyph-name="D" unicode="D" horiz-adv-x="640" 
d="M179 700q193 0 302 -90t109 -251q0 -169 -108.5 -264t-302.5 -95h-129v700h129zM105 17h75q164 0 258 87.5t98 246.5q1 159 -94 246.5t-267 88.5l-70 1v-670z" />
    <glyph glyph-name="E" unicode="E" horiz-adv-x="537" 
d="M486 700v-11h-381v-279h231v-11h-231v-388h381v-11h-436v700h436z" />
    <glyph glyph-name="F" unicode="F" horiz-adv-x="536" 
d="M486 700v-12h-381v-278h231v-12h-231v-398h-55v700h436z" />
    <glyph glyph-name="G" unicode="G" horiz-adv-x="757" 
d="M707 261v-3q-6 -70 -38 -123.5t-78.5 -83t-95.5 -44t-96 -14.5q-151 0 -250 93t-99 255q0 159 102 263.5t248 104.5q154 0 269 -90l-31 -41q-18 -14 -27 8q-20 51 -76 80t-133 29q-71 0 -130.5 -27.5t-105.5 -94.5t-58 -166q-20 -162 66.5 -282.5t224.5 -120.5
q107 0 181.5 68t83.5 199l-1 27h-197v11h241v-48z" />
    <glyph glyph-name="H" unicode="H" horiz-adv-x="582" 
d="M477 482v218h55v-700h-55v471h-372v-471h-55v700h55v-218h372z" />
    <glyph glyph-name="I" unicode="I" horiz-adv-x="195" 
d="M125 0h-55v700h55v-700z" />
    <glyph glyph-name="J" unicode="J" horiz-adv-x="465" 
d="M240 -7q-53 0 -102 26t-74 70q-10 19 8 41l38 40q-4 -74 33 -120.5t97 -44.5q53 2 86.5 41.5t33.5 114.5v539h55v-503q0 -103 -51.5 -153.5t-123.5 -50.5z" />
    <glyph glyph-name="K" unicode="K" horiz-adv-x="556" 
d="M536 0h-47l-272 464l-112 -133v-331h-55v700h55v-342l286 342h24l-167 -199z" />
    <glyph glyph-name="L" unicode="L" horiz-adv-x="516" 
d="M105 11h361v-11h-416v700h55v-689z" />
    <glyph glyph-name="M" unicode="M" horiz-adv-x="790" 
d="M675 700h55v-700h-55v661l-290 -661l-311 670v-653l-5 -17h-9v700h50l295 -621z" />
    <glyph glyph-name="N" unicode="N" horiz-adv-x="625" 
d="M551 104v596h14v-700h-24l-467 680v-663l-5 -17h-9v700h70z" />
    <glyph glyph-name="O" unicode="O" horiz-adv-x="801" 
d="M401 -10q-151 0 -251 103.5t-100 258.5t100 257.5t251 102.5t251 -102.5t100 -257.5t-100 -258.5t-251 -103.5zM556 44q70 32 111 100.5t42.5 153t-38.5 175.5q-44 89 -117.5 145t-152 65.5t-156.5 -22.5q-107 -49 -141 -174t27 -258q32 -67 81.5 -116t106 -72.5
t119 -23.5t118.5 27z" />
    <glyph glyph-name="P" unicode="P" horiz-adv-x="567" 
d="M50 700h53q214 11 314 -43t100 -183q0 -141 -96 -204t-316 -56v-214h-55v700zM105 686v-459q192 -7 274 53t80 194q-2 123 -87 173t-267 39z" />
    <glyph glyph-name="Q" unicode="Q" horiz-adv-x="833" 
d="M773 43l10 -5l-1 -3q-107 -182 -472 -44q-158 62 -211 -43l-8 14q33 85 112 88q-72 50 -112.5 130.5t-40.5 178.5q0 158 100 262.5t251 104.5t251 -104.5t100 -262.5q0 -143 -82.5 -244t-212.5 -121q243 -56 316 49zM131 234q64 -139 188 -192.5t237 3.5
q70 32 111.5 102.5t42.5 156.5t-39 178q-44 91 -117.5 148t-152 67t-156.5 -23q-107 -50 -141 -177.5t27 -262.5z" />
    <glyph glyph-name="R" unicode="R" horiz-adv-x="597" 
d="M547 0h-51l-188 333q-8 -2 -84.5 -22.5t-118.5 -34.5v-276h-55v700h53q24 0 74 3t85.5 4.5t82.5 -3t78.5 -16.5t58 -39t35.5 -68q26 -112 -64 -183q-38 -30 -104 -52zM105 686v-393q33 12 112 34t127 42.5t77 51.5q55 57 38 144q-6 30 -23 52t-41.5 34.5t-55.5 20.5
t-64.5 10.5t-68.5 3.5t-68 0h-33z" />
    <glyph glyph-name="S" unicode="S" horiz-adv-x="611" 
d="M276 -7q-75 5 -135 39.5t-91 91.5l31 33q14 16 24.5 15t9.5 -23q9 -133 162 -144q113 -8 180 48.5t39 136.5q-10 31 -47 60t-84.5 50t-100 48t-95.5 53t-69.5 65.5t-23.5 85.5q5 75 77 119t174 34q109 -12 183 -83l-20 -39q-6 -7 -13 -3.5t-9 14.5q-13 44 -50.5 69
t-90.5 29q-85 8 -145 -25.5t-66 -93.5q-4 -50 32 -87.5t94 -62t118.5 -48t114.5 -60.5t74 -85q26 -66 -2.5 -123t-102 -88.5t-168.5 -25.5z" />
    <glyph glyph-name="T" unicode="T" horiz-adv-x="636" 
d="M586 700v-11h-235v-689h-55v689h-246v11h536z" />
    <glyph glyph-name="U" unicode="U" horiz-adv-x="632" 
d="M558 240v460h14v-462q-1 -103 -71 -173.5t-174 -70.5q-114 0 -190.5 64t-76.5 156v486h55v-474q0 -89 61 -151.5t151 -62.5q100 0 165.5 66t65.5 162z" />
    <glyph glyph-name="V" unicode="V" horiz-adv-x="638" 
d="M342 86l220 614h26l-250 -700h-32l-256 700h67z" />
    <glyph glyph-name="W" unicode="W" horiz-adv-x="891" 
d="M643 84l172 616h26l-200 -700h-37l-167 564l-146 -564h-43l-198 700h65l176 -611l135 514l-29 97h64z" />
    <glyph glyph-name="X" unicode="X" horiz-adv-x="593" 
d="M320 366l223 -366h-61l-194 314l-195 -314h-24l207 334l-226 366h67l191 -314l194 314h26z" />
    <glyph glyph-name="Y" unicode="Y" horiz-adv-x="573" 
d="M497 700h26l-210 -334v-366h-55v363l-208 337h67l188 -310z" />
    <glyph glyph-name="Z" unicode="Z" horiz-adv-x="623" 
d="M573 700l-455 -689h421v-11h-489l449 689h-420v11h494z" />
    <glyph glyph-name="bracketleft" unicode="[" horiz-adv-x="280" 
d="M250 -50h-200v800h200v-11h-150v-778h150v-11z" />
    <glyph glyph-name="backslash" unicode="\" horiz-adv-x="488" 
d="M438 -100h-10l-378 900h12z" />
    <glyph glyph-name="bracketright" unicode="]" horiz-adv-x="280" 
d="M230 -50h-200v11h150v778h-150v11h200v-800z" />
    <glyph glyph-name="underscore" unicode="_" horiz-adv-x="551" 
d="M501 -10h-451v26h451v-26z" />
    <glyph glyph-name="grave" unicode="`" horiz-adv-x="263" 
d="M213 567h-9l-154 133h42z" />
    <glyph glyph-name="a" unicode="a" horiz-adv-x="528" 
d="M443 73q5 -59 25 -73h-55q-22 9 -25 85q-26 -44 -78.5 -68.5t-105 -24t-96.5 28.5t-55 79q-10 51 16 103t97 82q92 39 222 39v48q0 60 -36.5 91.5t-103.5 31.5q-59 0 -116 -55q-4 -4 -7.5 -5.5t-7.5 -1.5t-6.5 0.5t-7.5 4t-7 5t-8 6.5t-8 6q61 53 168 53q89 0 140 -42.5
t55 -118.5v-274zM388 284v26q-73 0 -111 -8t-77 -28q-115 -61 -101 -161q5 -34 29 -56.5t58.5 -29t71.5 -1.5t72.5 26t56.5 54q0 19 0.5 78t0.5 100z" />
    <glyph glyph-name="b" unicode="b" horiz-adv-x="572" 
d="M291 503q52 -4 94 -25t66.5 -49t41.5 -62t23 -61.5t6 -49.5q0 -104 -52 -177.5t-153 -87.5q-75 -9 -127 14.5t-75 55.5v-19l6 -42h-61v701h55v-247q79 55 176 49zM297 5q84 20 126 89.5t42 157.5q0 27 -7.5 58t-25.5 69t-57.5 67t-94.5 38q-72 11 -165 -45v-308
q7 -53 63.5 -96.5t118.5 -29.5z" />
    <glyph glyph-name="c" unicode="c" horiz-adv-x="548" 
d="M287 496q-77 0 -126 -69t-49 -185q0 -135 82 -201t203 -14q38 16 80 80l21 -7q-76 -117 -207 -113q-106 2 -174.5 79.5t-66.5 191.5q4 105 72 176.5t165 74.5q61 0 105 -16t93 -57q-2 -1 -6.5 -5t-6 -5t-5 -3.5t-5 -2.5t-5 -0.5t-5.5 0.5t-5 3t-6 5q-41 39 -75 53.5
t-79 14.5z" />
    <glyph glyph-name="d" unicode="d" horiz-adv-x="572" 
d="M457 454v248h55v-702h-61l6 42v19q-23 -32 -75 -55.5t-127 -14.5q-101 14 -153 87.5t-52 177.5q0 22 6 49.5t23 61.5t41.5 62t66.5 49t94 25q97 6 176 -49zM457 131v308q-93 56 -165 45q-55 -9 -94.5 -38t-57.5 -67t-25.5 -69t-7.5 -58q0 -88 42 -157t126 -89
q62 -14 118.5 29t63.5 96z" />
    <glyph glyph-name="e" unicode="e" horiz-adv-x="564" 
d="M111 302q-3 -42 3 -87q15 -118 101 -173t173 -16q58 24 87 81l21 -7q-75 -118 -211 -113q-104 4 -169.5 77.5t-65.5 188.5q0 116 69.5 186t176.5 70q87 0 147 -56.5t70 -150.5h-402zM287 500q-76 0 -121 -51.5t-54 -135.5h351q-10 91 -57 139t-119 48z" />
    <glyph glyph-name="f" unicode="f" horiz-adv-x="436" 
d="M288 758q38 0 64 -10.5t64 -42.5q-2 -1 -6.5 -5t-6 -5t-5 -3.5t-5 -2.5t-5 -0.5t-5.5 0.5t-5 3t-6 5q-32 31 -49 41t-35 10q-51 -2 -80.5 -42t-29.5 -116v-90h127v-11h-127v-489h-55v489h-63v11h63v54q0 104 47 154t118 50z" />
    <glyph glyph-name="g" unicode="g" horiz-adv-x="616" 
d="M501 408v75l55 17v-422q0 -56 -11.5 -103t-30.5 -80t-44 -58t-53 -39t-57 -21t-55.5 -6t-48.5 8v21q15 -11 43.5 -14.5t63.5 7.5t65.5 38t51.5 85.5t21 139.5v33q-73 -102 -201 -102q-108 0 -179 75.5t-71 192.5q0 108 71.5 181t178.5 73q62 0 114.5 -27t86.5 -74zM296 4
q85 -2 143 63t62 169v15q-2 104 -57.5 172t-139.5 71q-89 4 -140 -59t-51 -180q0 -116 49 -182t134 -69z" />
    <glyph glyph-name="h" unicode="h" horiz-adv-x="567" 
d="M482 73q5 -59 25 -73h-55q-5 2 -9.5 7t-7 14.5t-4.5 19t-3 26t-1.5 31t-0.5 38t0.5 43t0.5 50v55.5v51q0 25 -5.5 49.5t-20 53.5t-47 45.5t-79.5 13.5q-49 -3 -104.5 -49t-55.5 -89v-359h-55v701h55v-270q73 73 160 79q106 7 156.5 -44t50.5 -119v-274z" />
    <glyph glyph-name="i" unicode="i" horiz-adv-x="193" 
d="M97 635q-16 0 -26.5 11t-10.5 26q0 16 10.5 26.5t26.5 10.5q15 0 25.5 -10.5t10.5 -26.5q0 -15 -10.5 -26t-25.5 -11zM124 500v-500h-55v500h55z" />
    <glyph glyph-name="j" unicode="j" horiz-adv-x="287" 
d="M191 635q-16 0 -26.5 11t-10.5 26q0 16 10.5 26.5t26.5 10.5q15 0 25.5 -10.5t10.5 -26.5q0 -15 -10.5 -26t-25.5 -11zM161 500h55v-614q0 -71 -52.5 -97t-103.5 15l7 11q48 -24 71 5t23 83v597z" />
    <glyph glyph-name="k" unicode="k" horiz-adv-x="498" 
d="M190 308l258 -308h-51l-241 277l-35 -32v-245h-61l6 42v659h55v-434l256 233h26z" />
    <glyph glyph-name="l" unicode="l" horiz-adv-x="201" 
d="M116 73q5 -59 25 -73h-55q-5 2 -9.5 7t-7 14.5t-4.5 19t-3 26t-1.5 31t-0.5 38t0.5 43t0.5 50v55.5v416h55v-627z" />
    <glyph glyph-name="m" unicode="m" horiz-adv-x="864" 
d="M779 73q5 -59 25 -73h-55q-5 2 -9.5 7t-7 14.5t-4.5 19t-3 26t-1.5 31t-0.5 38t0.5 43t0.5 50v55.5v71q0 24 -5 47t-17 48t-37.5 38t-62.5 9q-56 -6 -108 -60.5t-52 -87.5v-349h-55v355q0 24 -5 47t-17 48.5t-37.5 38.5t-62.5 8q-57 -8 -103.5 -57.5t-46.5 -80.5v-359
h-55v500l55 -10v-68q28 37 71.5 61t78.5 27q74 7 117.5 -23.5t55.5 -81.5q27 43 75 72.5t89 32.5q88 7 132.5 -36.5t44.5 -106.5v-294z" />
    <glyph glyph-name="n" unicode="n" horiz-adv-x="567" 
d="M482 347v-51q0 -36 -1 -92.5t-0.5 -80.5t2.5 -55.5t8 -46t16 -21.5h-55q-5 2 -9.5 7t-7 14.5t-4.5 19t-3 26t-1.5 31t-0.5 38t0.5 43t0.5 50v55.5v51q0 25 -5.5 49.5t-20 53.5t-47 45.5t-79.5 13.5q-49 -3 -104.5 -49t-55.5 -89v-317l6 -42h-61v500l55 -10v-55
q32 32 75 52t85 23q106 7 156.5 -44t50.5 -119z" />
    <glyph glyph-name="o" unicode="o" horiz-adv-x="620" 
d="M310 -13q-107 0 -178.5 75t-71.5 187t71.5 186t178.5 74t178.5 -74t71.5 -186t-71.5 -187t-178.5 -75zM415 29q77 36 100 120t-20 180q-48 99 -129 138t-160 1q-77 -36 -100.5 -120.5t19.5 -180.5q46 -100 127.5 -138.5t162.5 0.5z" />
    <glyph glyph-name="p" unicode="p" horiz-adv-x="548" 
d="M305 494q96 -13 144.5 -82.5t48.5 -167.5q0 -20 -6 -46t-21.5 -58t-39 -58.5t-63 -46.5t-88.5 -23q-90 -6 -165 46v-252l6 -42h-61v736l55 -10v-62q20 31 69.5 53t120.5 13zM270 30q42 7 75 26.5t51 44t29.5 54t15 51.5t3.5 42q0 83 -39.5 149t-118.5 84q-58 13 -111 -28
t-60 -90v-291q89 -53 155 -42z" />
    <glyph glyph-name="q" unicode="q" horiz-adv-x="548" 
d="M433 428v62l55 10v-736h-61l6 42v252q-75 -52 -165 -46q-49 3 -88.5 23t-63 46.5t-39 58.5t-21.5 58t-6 46q0 98 48.5 167.5t144.5 82.5q71 9 120.5 -13t69.5 -53zM433 72v291q-7 49 -60 90t-111 28q-79 -18 -118.5 -84t-39.5 -149q0 -20 3.5 -42t15 -51.5t29.5 -54
t51 -44t75 -26.5q66 -11 155 42z" />
    <glyph glyph-name="r" unicode="r" horiz-adv-x="404" 
d="M236 511q76 7 138 -43q-46 -36 -64 -18q-31 30 -46.5 37.5t-37.5 5.5q-40 -3 -67.5 -31t-37.5 -78v-384h-61l6 42v458l55 -10v-47q44 62 115 68z" />
    <glyph glyph-name="s" unicode="s" horiz-adv-x="490" 
d="M227 -7q-132 3 -177 76q23 37 45 38q14 0 18 -20v-2q13 -77 115 -80q77 -3 127 37t30 94q-10 26 -47.5 48.5t-83 40.5t-89.5 38t-73 51.5t-27 72.5q1 57 54.5 92t127.5 30q101 -6 154 -51q-16 -39 -33 -39q-8 1 -12 11q-11 30 -40.5 47.5t-68.5 19.5q-63 2 -104 -19.5
t-42 -59.5q-1 -37 26.5 -64.5t71 -45.5t89 -35.5t86 -44.5t56.5 -62q32 -72 -28.5 -124.5t-174.5 -48.5z" />
    <glyph glyph-name="t" unicode="t" horiz-adv-x="365" 
d="M210 73q5 -59 25 -73h-55q-5 2 -9.5 7t-7 14.5t-4.5 19t-3 26t-1.5 31t-0.5 38t0.5 43t0.5 50v55.5v205h-105v11h105v200h55v-200h105v-11h-105v-416z" />
    <glyph glyph-name="u" unicode="u" horiz-adv-x="573" 
d="M488 73q5 -59 25 -73h-55q-20 9 -25 74q-68 -68 -160 -75q-106 -7 -156.5 44t-50.5 119v296l-6 42h61v-326q0 -25 5.5 -49.5t20 -53.5t47 -45.5t79.5 -13.5q46 3 99 44.5t60 83.5q0 18 0.5 66t0.5 78v174l-6 42h61v-427z" />
    <glyph glyph-name="v" unicode="v" horiz-adv-x="558" 
d="M304 79l178 421h26l-210 -500h-22l-3 6l-223 494h67z" />
    <glyph glyph-name="w" unicode="w" horiz-adv-x="772" 
d="M559 90l129 410h24l-156 -500h-22l-2 5l-144 385l-122 -390h-22l-2 5l-182 495h65l144 -409l106 335l-28 74h64z" />
    <glyph glyph-name="x" unicode="x" horiz-adv-x="513" 
d="M278 267l185 -267h-61l-156 222l-157 -222h-22l167 238l-184 262h67l149 -216l152 216h25z" />
    <glyph glyph-name="y" unicode="y" horiz-adv-x="531" 
d="M292 83l163 417h26l-233 -581q-29 -73 -71 -107t-76 -34v10.5v10t0.5 9t1 9t2 7.5t4 7t6 5t8 4.5t10.5 1.5q68 8 88 60l42 106l-213 492h67z" />
    <glyph glyph-name="z" unicode="z" horiz-adv-x="473" 
d="M423 500l-305 -489h271v-11h-339l299 489h-270v11h344z" />
    <glyph glyph-name="braceleft" unicode="{" horiz-adv-x="257" 
d="M227 -40h-12q-25 0 -37 10q-37 31 -44 97q-6 43 -1 82.5t7 74t-3 60t-31 40t-76 14.5v11q50 0 76 14.5t31 39.5t3 59.5t-7 74t1 82.5q7 66 44 97q15 10 37 10h12q-41 -7 -44 -47q-2 -35 4 -85.5t10 -86t0 -72t-28.5 -59.5t-71.5 -32q47 -9 71.5 -32.5t28.5 -59.5t0 -72
t-10 -86.5t-4 -85.5q3 -41 44 -48z" />
    <glyph glyph-name="bar" unicode="|" horiz-adv-x="110" 
d="M60 -50h-10v800h10v-800z" />
    <glyph glyph-name="braceright" unicode="}" horiz-adv-x="277" 
d="M52 -40h-12q41 7 44 48q2 35 -4 85.5t-10 86.5t0 72t28.5 59.5t71.5 32.5q-47 9 -71.5 32t-28.5 59.5t0 72t10 86t4 85.5q-3 40 -44 47h12q22 0 37 -10q37 -31 44 -97q6 -43 1 -82.5t-7 -74t3 -59.5t31 -39.5t76 -14.5v-11q-50 0 -76 -14.5t-31 -40t-3 -60t7 -74
t-1 -82.5q-7 -66 -44 -97q-12 -10 -37 -10z" />
    <glyph glyph-name="cent" unicode="&#xa2;" horiz-adv-x="528" 
d="M473 259q12 -2 -2 -19q-67 -105 -184 -102v-188h-10v188q-95 5 -162 75.5t-65 170.5q4 94 71 160t155 68h1v138h10v-138q92 0 156 -54l-6 -35q-3 -8 -9 -6.5t-10 10.5q-34 75 -131 78v-454q46 -3 98 19q35 15 72 72q2 3 4.5 7t3 5.5t2.5 3.5t2.5 1.5t3.5 -0.5zM122 369
q0 -88 42.5 -148t112.5 -69v453q-68 -2 -111.5 -66.5t-43.5 -169.5z" />
    <glyph glyph-name="sterling" unicode="&#xa3;" horiz-adv-x="554" 
d="M504 0h-437v17q5 5 17 16q24 22 37 35t35 37.5t32.5 43t22 45.5t12 51.5t-6 55t-24.5 60.5h-142v8h134q-33 58 -41 119.5t8.5 112t62 83t112.5 32.5q68 0 142 -66l-17 -28q-15 -12 -24 13q-28 74 -102 74q-75 0 -108.5 -53t-23.5 -131t55 -156h182v-8h-176
q12 -27 15.5 -54t1.5 -50t-12 -47t-19.5 -42t-27 -38.5t-30 -33t-33 -29.5t-29.5 -24t-27 -19.5t-19 -13.5h430v-10z" />
    <glyph glyph-name="currency" unicode="&#xa4;" horiz-adv-x="597" 
d="M164 234l-84 -103l-30 31l102 84q-54 57 -54 131q0 77 56 135l-104 86l30 31l86 -105q60 52 133 52q76 0 133 -51l85 104l30 -31l-103 -84q57 -59 57 -137q0 -75 -55 -132l101 -83l-30 -31l-83 101q-60 -52 -135 -52q-76 0 -135 54zM299 194q71 0 113 51t42 133
t-42.5 134t-112.5 52q-69 0 -110.5 -52t-41.5 -134t41 -133t111 -51z" />
    <glyph glyph-name="dieresis" unicode="&#xa8;" horiz-adv-x="324" 
d="M86 594q-15 0 -25.5 9.5t-10.5 22.5q0 14 10.5 23.5t25.5 9.5q16 0 26.5 -9.5t10.5 -23.5q0 -13 -10.5 -22.5t-26.5 -9.5zM237 594q-15 0 -25.5 9.5t-10.5 22.5q0 14 10.5 23.5t25.5 9.5q16 0 26.5 -9.5t10.5 -23.5q0 -13 -10.5 -22.5t-26.5 -9.5z" />
    <glyph glyph-name="copyright" unicode="&#xa9;" horiz-adv-x="896" 
d="M448 -113q-95 0 -180 48.5t-136.5 132.5t-51.5 181q0 148 111 255.5t257 107.5t257 -107.5t111 -255.5t-111 -255t-257 -107zM448 -101q134 0 243.5 103.5t109.5 247.5t-109.5 247.5t-243.5 103.5t-243 -103.5t-109 -247.5t109 -247.5t243 -103.5zM453 88q-67 2 -114 50
t-46 118q2 64 48 109t107 47q67 1 114 -37l-3 -18q-2 -7 -6.5 -9t-6.5 3q-25 56 -96 56q-47 0 -77.5 -44t-30.5 -117q0 -83 52.5 -125.5t127.5 -10.5q23 10 49 49q10 12 11 12q7 -2 -1 -13q-47 -73 -128 -70z" />
    <glyph glyph-name="registered" unicode="&#xae;" horiz-adv-x="276" 
d="M138 583q-35 0 -61.5 25.5t-26.5 60.5q0 36 26.5 61.5t61.5 25.5t61.5 -25.5t26.5 -61.5q0 -35 -26.5 -60.5t-61.5 -25.5zM138 592q32 0 54.5 21.5t22.5 56.5q0 34 -22.5 55.5t-54.5 21.5t-54.5 -21.5t-22.5 -55.5q0 -35 22.5 -56.5t54.5 -21.5zM128 623h-14v95h14
q34 0 36 -26q1 -15 -21 -24q20 -5 20 -31q0 -6 4 -14h-12q-4 4 -5 14q-1 3 -1.5 9t-1 8.5t-2.5 5.5t-6 4.5t-11 1.5v-43zM128 713v-43q23 0 23 22q0 21 -23 21z" />
    <glyph glyph-name="macron" unicode="&#xaf;" horiz-adv-x="260" 
d="M210 615h-160v20h160v-20z" />
    <glyph glyph-name="acute" unicode="&#xb4;" horiz-adv-x="263" 
d="M59 567h-9l121 133h42z" />
    <glyph glyph-name="paragraph" unicode="&#xb6;" horiz-adv-x="391" 
d="M289 0h-50v455q-88 0 -138.5 32.5t-50.5 87.5t53.5 90t135.5 35h50v-700zM341 0h-20v700h20v-700z" />
    <glyph glyph-name="periodcentered" unicode="&#xb7;" horiz-adv-x="193" 
d="M96 227q-19 0 -32.5 14t-13.5 34q0 19 13.5 33t32.5 14t33 -14t14 -33q0 -20 -13.5 -34t-33.5 -14z" />
    <glyph glyph-name="cedilla" unicode="&#xb8;" horiz-adv-x="218" 
d="M50 -199v4q39 0 61 19t22 52t-25.5 53t-57.5 20l8 51h23l-15 -39q41 -2 71.5 -26t30.5 -60q0 -33 -31.5 -53.5t-86.5 -20.5z" />
    <glyph glyph-name="Agrave" unicode="&#xc0;" horiz-adv-x="667" 
d="M302 862l121 -133h-9l-154 133h42zM617 0h-60l-96 242h-301l-93 -242h-17l270 700h21zM309 628l-144 -375h292z" />
    <glyph glyph-name="Aacute" unicode="&#xc1;" horiz-adv-x="667" 
d="M382 863h42l-154 -133h-9zM617 0h-60l-96 242h-301l-93 -242h-17l270 700h21zM309 628l-144 -375h292z" />
    <glyph glyph-name="Acircumflex" unicode="&#xc2;" horiz-adv-x="667" 
d="M454 732l-120 68q-5 2 -10 0l-120 -68v8l126 103l124 -103v-8zM617 0h-60l-96 242h-301l-93 -242h-17l270 700h21zM309 628l-144 -375h292z" />
    <glyph glyph-name="Atilde" unicode="&#xc3;" horiz-adv-x="667" 
d="M468 795l4 -8q-28 -30 -54 -39.5t-45 -3t-39 18t-37 22.5t-39.5 11t-45.5 -17l-7 7q32 29 58.5 37.5t44 0.5t36 -20t34.5 -23t39.5 -8.5t50.5 22.5zM617 0h-60l-96 242h-301l-93 -242h-17l270 700h21zM309 628l-144 -375h292z" />
    <glyph glyph-name="Adieresis" unicode="&#xc4;" horiz-adv-x="667" 
d="M253 776q-15 0 -25.5 9.5t-10.5 22.5q0 14 10.5 23.5t25.5 9.5q16 0 26.5 -9.5t10.5 -23.5q0 -13 -10.5 -22.5t-26.5 -9.5zM404 776q-15 0 -25.5 9.5t-10.5 22.5q0 14 10.5 23.5t25.5 9.5q16 0 26.5 -9.5t10.5 -23.5q0 -13 -10.5 -22.5t-26.5 -9.5zM617 0h-60l-96 242
h-301l-93 -242h-17l270 700h21zM309 628l-144 -375h292z" />
    <glyph glyph-name="Aring" unicode="&#xc5;" horiz-adv-x="667" 
d="M326 766q-31 0 -54.5 21t-23.5 51q0 31 23 51.5t55 20.5t56 -20.5t24 -51.5q0 -30 -24 -51t-56 -21zM289 898q-33 -19 2 -80q15 -27 35.5 -38t37.5 -1q33 18 -2 80q-16 27 -35.5 38t-37.5 1zM617 0h-60l-96 242h-301l-93 -242h-17l270 700h21zM309 628l-144 -375h292z
" />
    <glyph glyph-name="AE" unicode="&#xc6;" horiz-adv-x="896" 
d="M846 700v-11h-371v-279h221v-11h-221v-388h371v-11h-426v237h-226l-127 -237h-17l370 700h426zM420 660l-220 -412h220v412z" />
    <glyph glyph-name="Ccedilla" unicode="&#xc7;" horiz-adv-x="707" 
d="M654 140q8 -5 -4 -19q-39 -60 -110.5 -98.5t-143.5 -40.5l-9 -23q41 -2 71.5 -26t30.5 -60q0 -33 -31.5 -53.5t-86.5 -20.5v4q39 0 61 19t22 52t-25.5 53t-57.5 20l6 35q-144 13 -237.5 121.5t-89.5 259.5q4 145 97.5 245t229.5 104q62 4 138.5 -21.5t130.5 -68.5
l-31 -41q-19 -15 -27 8q-18 47 -76.5 78t-128.5 31q-114 0 -190 -102t-76 -255q0 -128 75 -222.5t187 -109.5q67 -10 139.5 24t113.5 96q9 17 22 11z" />
    <glyph glyph-name="Egrave" unicode="&#xc8;" horiz-adv-x="536" 
d="M237 887l121 -133h-9l-154 133h42zM486 700v-11h-381v-279h231v-11h-231v-388h381v-11h-436v700h436z" />
    <glyph glyph-name="Eacute" unicode="&#xc9;" horiz-adv-x="536" 
d="M323 895h42l-154 -133h-9zM486 700v-11h-381v-279h231v-11h-231v-388h381v-11h-436v700h436z" />
    <glyph glyph-name="Ecircumflex" unicode="&#xca;" horiz-adv-x="536" 
d="M397 747l-120 68q-5 2 -10 0l-120 -68v8l126 103l124 -103v-8zM486 700v-11h-381v-279h231v-11h-231v-388h381v-11h-436v700h436z" />
    <glyph glyph-name="Edieresis" unicode="&#xcb;" horiz-adv-x="536" 
d="M200 768q-15 0 -25.5 9.5t-10.5 22.5q0 14 10.5 23.5t25.5 9.5q16 0 26.5 -9.5t10.5 -23.5q0 -13 -10.5 -22.5t-26.5 -9.5zM351 768q-15 0 -25.5 9.5t-10.5 22.5q0 14 10.5 23.5t25.5 9.5q16 0 26.5 -9.5t10.5 -23.5q0 -13 -10.5 -22.5t-26.5 -9.5zM486 700v-11h-381
v-279h231v-11h-231v-388h381v-11h-436v700h436z" />
    <glyph glyph-name="Igrave" unicode="&#xcc;" horiz-adv-x="303" 
d="M233 750h-9l-154 133h42zM187 0h-55v700h55v-700z" />
    <glyph glyph-name="Iacute" unicode="&#xcd;" horiz-adv-x="303" 
d="M79 751h-9l121 133h42zM208 0h-55v700h55v-700z" />
    <glyph glyph-name="Icircumflex" unicode="&#xce;" horiz-adv-x="390" 
d="M190 834l-120 -68v8l126 103l124 -103v-8l-120 68q-5 2 -10 0zM241 0h-55v700h55v-700z" />
    <glyph glyph-name="Idieresis" unicode="&#xcf;" horiz-adv-x="364" 
d="M106 771q-15 0 -25.5 9.5t-10.5 22.5q0 14 10.5 23.5t25.5 9.5q16 0 26.5 -9.5t10.5 -23.5q0 -13 -10.5 -22.5t-26.5 -9.5zM257 771q-15 0 -25.5 9.5t-10.5 22.5q0 14 10.5 23.5t25.5 9.5q16 0 26.5 -9.5t10.5 -23.5q0 -13 -10.5 -22.5t-26.5 -9.5zM230 0h-55v700h55
v-700z" />
    <glyph glyph-name="Eth" unicode="&#xd0;" horiz-adv-x="640" 
d="M179 700q193 0 302 -90t109 -251q0 -169 -108.5 -264t-302.5 -95h-129v373h-92v10h92v317h129zM105 17h75q164 0 258 87.5t98 246.5q1 159 -94 246.5t-267 88.5l-70 1v-304h113v-10h-113v-356z" />
    <glyph glyph-name="Ntilde" unicode="&#xd1;" horiz-adv-x="625" 
d="M444 808l4 -8q-28 -30 -54 -39.5t-45 -3t-39 18t-37 22.5t-39.5 11t-45.5 -17l-7 7q32 29 58.5 37.5t44 0.5t36 -20t34.5 -23t39.5 -8.5t50.5 22.5zM551 104v596h14v-700h-24l-467 680v-663l-5 -17h-9v700h70z" />
    <glyph glyph-name="Ograve" unicode="&#xd2;" horiz-adv-x="802" 
d="M479 764h-9l-154 133h42zM401 -10q-151 0 -251 103.5t-100 258.5t100 257.5t251 102.5t251 -102.5t100 -257.5t-100 -258.5t-251 -103.5zM556 44q70 32 111 100.5t42.5 153t-38.5 175.5q-44 89 -117.5 145t-152 65.5t-156.5 -22.5q-107 -49 -141 -174t27 -258
q32 -67 81.5 -116t106 -72.5t119 -23.5t118.5 27z" />
    <glyph glyph-name="Oacute" unicode="&#xd3;" horiz-adv-x="802" 
d="M334 744h-9l121 133h42zM401 -10q-151 0 -251 103.5t-100 258.5t100 257.5t251 102.5t251 -102.5t100 -257.5t-100 -258.5t-251 -103.5zM556 44q70 32 111 100.5t42.5 153t-38.5 175.5q-44 89 -117.5 145t-152 65.5t-156.5 -22.5q-107 -49 -141 -174t27 -258
q32 -67 81.5 -116t106 -72.5t119 -23.5t118.5 27z" />
    <glyph glyph-name="Ocircumflex" unicode="&#xd4;" horiz-adv-x="802" 
d="M406 830l-120 -68v8l126 103l124 -103v-8l-120 68q-5 2 -10 0zM401 -10q-151 0 -251 103.5t-100 258.5t100 257.5t251 102.5t251 -102.5t100 -257.5t-100 -258.5t-251 -103.5zM556 44q70 32 111 100.5t42.5 153t-38.5 175.5q-44 89 -117.5 145t-152 65.5t-156.5 -22.5
q-107 -49 -141 -174t27 -258q32 -67 81.5 -116t106 -72.5t119 -23.5t118.5 27z" />
    <glyph glyph-name="Otilde" unicode="&#xd5;" horiz-adv-x="802" 
d="M290 817l-7 7q32 29 58.5 37.5t44 0.5t36 -20t34.5 -23t39.5 -8.5t50.5 22.5l4 -8q-28 -30 -54 -39.5t-45 -3t-39 18t-37 22.5t-39.5 11t-45.5 -17zM401 -10q-151 0 -251 103.5t-100 258.5t100 257.5t251 102.5t251 -102.5t100 -257.5t-100 -258.5t-251 -103.5zM556 44
q70 32 111 100.5t42.5 153t-38.5 175.5q-44 89 -117.5 145t-152 65.5t-156.5 -22.5q-107 -49 -141 -174t27 -258q32 -67 81.5 -116t106 -72.5t119 -23.5t118.5 27z" />
    <glyph glyph-name="Odieresis" unicode="&#xd6;" horiz-adv-x="802" 
d="M323 778q-15 0 -25.5 9.5t-10.5 22.5q0 14 10.5 23.5t25.5 9.5q16 0 26.5 -9.5t10.5 -23.5q0 -13 -10.5 -22.5t-26.5 -9.5zM474 778q-15 0 -25.5 9.5t-10.5 22.5q0 14 10.5 23.5t25.5 9.5q16 0 26.5 -9.5t10.5 -23.5q0 -13 -10.5 -22.5t-26.5 -9.5zM401 -10
q-151 0 -251 103.5t-100 258.5t100 257.5t251 102.5t251 -102.5t100 -257.5t-100 -258.5t-251 -103.5zM556 44q70 32 111 100.5t42.5 153t-38.5 175.5q-44 89 -117.5 145t-152 65.5t-156.5 -22.5q-107 -49 -141 -174t27 -258q32 -67 81.5 -116t106 -72.5t119 -23.5t118.5 27
z" />
    <glyph glyph-name="multiply" unicode="&#xd7;" horiz-adv-x="464" 
d="M232 370l-158 -158l-10 11l158 158l-158 157l11 10l157 -157l157 157l11 -10l-157 -157l157 -158l-10 -11z" />
    <glyph glyph-name="Oslash" unicode="&#xd8;" horiz-adv-x="801" 
d="M664 700l-47 -59q63 -50 99 -125t36 -164q0 -155 -100 -258.5t-251 -103.5q-138 0 -234 87l-62 -77h-13l67 84q-109 104 -109 268q0 155 100 257.5t251 102.5q117 0 207 -65l42 53h14zM131 229q26 -56 65 -99l376 473q-72 63 -160 78.5t-167 -20.5q-107 -49 -141 -174
t27 -258zM556 44q70 32 111 100.5t42.5 153t-38.5 175.5q-36 73 -91 122l-377 -473q72 -77 168 -98.5t185 20.5z" />
    <glyph glyph-name="Ugrave" unicode="&#xd9;" horiz-adv-x="632" 
d="M256 882l121 -133h-9l-154 133h42zM558 240v460h14v-462q-1 -103 -71 -173.5t-174 -70.5q-114 0 -190.5 64t-76.5 156v486h55v-474q0 -89 61 -151.5t151 -62.5q100 0 165.5 66t65.5 162z" />
    <glyph glyph-name="Uacute" unicode="&#xda;" horiz-adv-x="632" 
d="M406 878h42l-154 -133h-9zM558 240v460h14v-462q-1 -103 -71 -173.5t-174 -70.5q-114 0 -190.5 64t-76.5 156v486h55v-474q0 -89 61 -151.5t151 -62.5q100 0 165.5 66t65.5 162z" />
    <glyph glyph-name="Ucircumflex" unicode="&#xdb;" horiz-adv-x="632" 
d="M434 773l-120 68q-5 2 -10 0l-120 -68v8l126 103l124 -103v-8zM558 240v460h14v-462q-1 -103 -71 -173.5t-174 -70.5q-114 0 -190.5 64t-76.5 156v486h55v-474q0 -89 61 -151.5t151 -62.5q100 0 165.5 66t65.5 162z" />
    <glyph glyph-name="Udieresis" unicode="&#xdc;" horiz-adv-x="632" 
d="M232 767q-15 0 -25.5 9.5t-10.5 22.5q0 14 10.5 23.5t25.5 9.5q16 0 26.5 -9.5t10.5 -23.5q0 -13 -10.5 -22.5t-26.5 -9.5zM383 767q-15 0 -25.5 9.5t-10.5 22.5q0 14 10.5 23.5t25.5 9.5q16 0 26.5 -9.5t10.5 -23.5q0 -13 -10.5 -22.5t-26.5 -9.5zM558 240v460h14v-462
q-1 -103 -71 -173.5t-174 -70.5q-114 0 -190.5 64t-76.5 156v486h55v-474q0 -89 61 -151.5t151 -62.5q100 0 165.5 66t65.5 162z" />
    <glyph glyph-name="Yacute" unicode="&#xdd;" horiz-adv-x="573" 
d="M388 891h42l-154 -133h-9zM497 700h26l-210 -334v-366h-55v363l-208 337h67l188 -310z" />
    <glyph glyph-name="Thorn" unicode="&#xde;" horiz-adv-x="567" 
d="M105 700v-100q212 11 312 -49t100 -197q0 -131 -100 -189t-312 -51v-114h-55v700h55zM105 586v-459q185 -7 270 47.5t84 179.5q-2 132 -87.5 187.5t-266.5 44.5z" />
    <glyph glyph-name="germandbls" unicode="&#xdf;" horiz-adv-x="565" 
d="M260 403q120 0 187.5 -53.5t67.5 -149.5q0 -94 -74.5 -147t-208.5 -53v11q101 0 157.5 50.5t56.5 138.5q0 89 -51 139t-142 50h-86v13q75 0 117.5 37t42.5 107q0 67 -37 104t-95 37q-36 0 -63 -24t-27 -65v-556l6 -42h-61v566q0 61 39.5 97.5t93.5 36.5h26
q76 0 122.5 -46t46.5 -108q0 -108 -118 -143z" />
    <glyph glyph-name="agrave" unicode="&#xe0;" horiz-adv-x="493" 
d="M222 700l121 -133h-9l-154 133h42zM443 73q5 -59 25 -73h-55q-22 9 -25 85q-26 -44 -78.5 -68.5t-105 -24t-96.5 28.5t-55 79q-10 51 16 103t97 82q92 39 222 39v48q0 60 -36.5 91.5t-103.5 31.5q-59 0 -116 -55q-4 -4 -7.5 -5.5t-7.5 -1.5t-6.5 0.5t-7.5 4t-7 5t-8 6.5
t-8 6q61 53 168 53q89 0 140 -42.5t55 -118.5v-274zM388 284v26q-73 0 -111 -8t-77 -28q-115 -61 -101 -161q5 -34 29 -56.5t58.5 -29t71.5 -1.5t72.5 26t56.5 54q0 19 0.5 78t0.5 100z" />
    <glyph glyph-name="aacute" unicode="&#xe1;" horiz-adv-x="493" 
d="M320 700h42l-154 -133h-9zM443 73q5 -59 25 -73h-55q-22 9 -25 85q-26 -44 -78.5 -68.5t-105 -24t-96.5 28.5t-55 79q-10 51 16 103t97 82q92 39 222 39v48q0 60 -36.5 91.5t-103.5 31.5q-59 0 -116 -55q-4 -4 -7.5 -5.5t-7.5 -1.5t-6.5 0.5t-7.5 4t-7 5t-8 6.5t-8 6
q61 53 168 53q89 0 140 -42.5t55 -118.5v-274zM388 284v26q-73 0 -111 -8t-77 -28q-115 -61 -101 -161q5 -34 29 -56.5t58.5 -29t71.5 -1.5t72.5 26t56.5 54q0 19 0.5 78t0.5 100z" />
    <glyph glyph-name="acircumflex" unicode="&#xe2;" horiz-adv-x="528" 
d="M378 556l-120 68q-5 2 -10 0l-120 -68v8l126 103l124 -103v-8zM443 73q5 -59 25 -73h-55q-22 9 -25 85q-26 -44 -78.5 -68.5t-105 -24t-96.5 28.5t-55 79q-10 51 16 103t97 82q92 39 222 39v48q0 60 -36.5 91.5t-103.5 31.5q-59 0 -116 -55q-4 -4 -7.5 -5.5t-7.5 -1.5
t-6.5 0.5t-7.5 4t-7 5t-8 6.5t-8 6q61 53 168 53q89 0 140 -42.5t55 -118.5v-274zM388 284v26q-73 0 -111 -8t-77 -28q-115 -61 -101 -161q5 -34 29 -56.5t58.5 -29t71.5 -1.5t72.5 26t56.5 54q0 19 0.5 78t0.5 100z" />
    <glyph glyph-name="atilde" unicode="&#xe3;" horiz-adv-x="528" 
d="M391 637l4 -8q-28 -30 -54 -39.5t-45 -3t-39 18t-37 22.5t-39.5 11t-45.5 -17l-7 7q32 29 58.5 37.5t44 0.5t36 -20t34.5 -23t39.5 -8.5t50.5 22.5zM443 73q5 -59 25 -73h-55q-22 9 -25 85q-26 -44 -78.5 -68.5t-105 -24t-96.5 28.5t-55 79q-10 51 16 103t97 82
q92 39 222 39v48q0 60 -36.5 91.5t-103.5 31.5q-59 0 -116 -55q-4 -4 -7.5 -5.5t-7.5 -1.5t-6.5 0.5t-7.5 4t-7 5t-8 6.5t-8 6q61 53 168 53q89 0 140 -42.5t55 -118.5v-274zM388 284v26q-73 0 -111 -8t-77 -28q-115 -61 -101 -161q5 -34 29 -56.5t58.5 -29t71.5 -1.5
t72.5 26t56.5 54q0 19 0.5 78t0.5 100z" />
    <glyph glyph-name="adieresis" unicode="&#xe4;" horiz-adv-x="493" 
d="M180 594q-15 0 -25.5 9.5t-10.5 22.5q0 14 10.5 23.5t25.5 9.5q16 0 26.5 -9.5t10.5 -23.5q0 -13 -10.5 -22.5t-26.5 -9.5zM331 594q-15 0 -25.5 9.5t-10.5 22.5q0 14 10.5 23.5t25.5 9.5q16 0 26.5 -9.5t10.5 -23.5q0 -13 -10.5 -22.5t-26.5 -9.5zM443 73q5 -59 25 -73
h-55q-22 9 -25 85q-26 -44 -78.5 -68.5t-105 -24t-96.5 28.5t-55 79q-10 51 16 103t97 82q92 39 222 39v48q0 60 -36.5 91.5t-103.5 31.5q-59 0 -116 -55q-4 -4 -7.5 -5.5t-7.5 -1.5t-6.5 0.5t-7.5 4t-7 5t-8 6.5t-8 6q61 53 168 53q89 0 140 -42.5t55 -118.5v-274zM388 284
v26q-73 0 -111 -8t-77 -28q-115 -61 -101 -161q5 -34 29 -56.5t58.5 -29t71.5 -1.5t72.5 26t56.5 54q0 19 0.5 78t0.5 100z" />
    <glyph glyph-name="aring" unicode="&#xe5;" horiz-adv-x="528" 
d="M253 590q-31 0 -54.5 21t-23.5 51q0 31 23 51.5t55 20.5t56 -20.5t24 -51.5q0 -30 -24 -51t-56 -21zM216 722q-33 -19 2 -80q15 -27 35.5 -38t37.5 -1q33 18 -2 80q-16 27 -35.5 38t-37.5 1zM443 73q5 -59 25 -73h-55q-22 9 -25 85q-26 -44 -78.5 -68.5t-105 -24
t-96.5 28.5t-55 79q-10 51 16 103t97 82q92 39 222 39v48q0 60 -36.5 91.5t-103.5 31.5q-59 0 -116 -55q-4 -4 -7.5 -5.5t-7.5 -1.5t-6.5 0.5t-7.5 4t-7 5t-8 6.5t-8 6q61 53 168 53q89 0 140 -42.5t55 -118.5v-274zM388 284v26q-73 0 -111 -8t-77 -28q-115 -61 -101 -161
q5 -34 29 -56.5t58.5 -29t71.5 -1.5t72.5 26t56.5 54q0 19 0.5 78t0.5 100z" />
    <glyph glyph-name="ae" unicode="&#xe6;" horiz-adv-x="901" 
d="M449 302q-3 -41 3 -87q15 -118 103.5 -175.5t175.5 -18.5q58 24 87 81q6 13 9.5 16.5t7.5 2.5q10 -4 -1 -21q-75 -118 -211 -113q-104 4 -169.5 77.5t-65.5 188.5v57q-73 0 -111 -8t-77 -28q-115 -61 -101 -161q8 -56 64 -78.5t122.5 -2.5t102.5 75l3 -17
q-25 -46 -77.5 -71.5t-106 -25.5t-98.5 27.5t-56 79.5q-10 51 16 103t97 82q92 39 222 39v48q0 60 -36.5 91.5t-103.5 31.5q-99 0 -109 -96q-2 -14 -14 -11q-23 5 -31.5 23t12.5 41q62 56 142 56q142 0 183 -102q32 49 85.5 76t117.5 27q74 0 139.5 -50.5t77.5 -146.5
q0 -2 -0.5 -4t-2 -3t-3 -1.5t-3.5 -1t-4 -0.5h-389zM625 495q-76 0 -121 -49.5t-54 -132.5h351q-9 90 -56 136t-120 46z" />
    <glyph glyph-name="ccedilla" unicode="&#xe7;" horiz-adv-x="554" 
d="M291 -13h-2l-10 -26q41 -2 71.5 -26t30.5 -60q0 -33 -31.5 -53.5t-86.5 -20.5v4q39 0 61 19t22 52t-25.5 53t-57.5 20l6 39q-97 11 -159 86.5t-60 183.5q4 105 72 176.5t165 74.5q61 0 105 -16t93 -57q-2 -1 -6.5 -5t-6 -5t-5 -3.5t-5 -2.5t-5 -0.5t-5.5 0.5t-5 3t-6 5
q-41 39 -75 53.5t-79 14.5q-77 0 -126 -69t-49 -185q0 -135 82 -201t203 -14q38 16 80 80l21 -7q-76 -117 -207 -113z" />
    <glyph glyph-name="egrave" unicode="&#xe8;" horiz-adv-x="563" 
d="M235 687l121 -133h-9l-154 133h42zM111 302q-3 -42 3 -87q15 -118 101 -173t173 -16q58 24 87 81l21 -7q-75 -118 -211 -113q-104 4 -169.5 77.5t-65.5 188.5q0 116 69.5 186t176.5 70q87 0 147 -56.5t70 -150.5h-402zM287 500q-76 0 -121 -51.5t-54 -135.5h351
q-10 91 -57 139t-119 48z" />
    <glyph glyph-name="eacute" unicode="&#xe9;" horiz-adv-x="573" 
d="M317 700h42l-154 -133h-9zM111 302q-3 -42 3 -87q15 -118 101 -173t173 -16q58 24 87 81l21 -7q-75 -118 -211 -113q-104 4 -169.5 77.5t-65.5 188.5q0 116 69.5 186t176.5 70q87 0 147 -56.5t70 -150.5h-402zM287 500q-76 0 -121 -51.5t-54 -135.5h351q-10 91 -57 139
t-119 48z" />
    <glyph glyph-name="ecircumflex" unicode="&#xea;" horiz-adv-x="573" 
d="M407 557l-120 68q-5 2 -10 0l-120 -68v8l126 103l124 -103v-8zM111 302q-3 -42 3 -87q15 -118 101 -173t173 -16q58 24 87 81l21 -7q-75 -118 -211 -113q-104 4 -169.5 77.5t-65.5 188.5q0 116 69.5 186t176.5 70q87 0 147 -56.5t70 -150.5h-402zM287 500
q-76 0 -121 -51.5t-54 -135.5h351q-10 91 -57 139t-119 48z" />
    <glyph glyph-name="edieresis" unicode="&#xeb;" horiz-adv-x="573" 
d="M205 593q-15 0 -25.5 9.5t-10.5 22.5q0 14 10.5 23.5t25.5 9.5q16 0 26.5 -9.5t10.5 -23.5q0 -13 -10.5 -22.5t-26.5 -9.5zM356 593q-15 0 -25.5 9.5t-10.5 22.5q0 14 10.5 23.5t25.5 9.5q16 0 26.5 -9.5t10.5 -23.5q0 -13 -10.5 -22.5t-26.5 -9.5zM111 302q-3 -42 3 -87
q15 -118 101 -173t173 -16q58 24 87 81l21 -7q-75 -118 -211 -113q-104 4 -169.5 77.5t-65.5 188.5q0 116 69.5 186t176.5 70q87 0 147 -56.5t70 -150.5h-402zM287 500q-76 0 -121 -51.5t-54 -135.5h351q-10 91 -57 139t-119 48z" />
    <glyph glyph-name="igrave" unicode="&#xec;" horiz-adv-x="303" 
d="M233 567h-9l-154 133h42zM184 500v-500h-55v500h55z" />
    <glyph glyph-name="iacute" unicode="&#xed;" horiz-adv-x="303" 
d="M79 567h-9l121 133h42zM181 500v-500h-55v500h55z" />
    <glyph glyph-name="icircumflex" unicode="&#xee;" horiz-adv-x="390" 
d="M190 656l-120 -68v8l126 103l124 -103v-8l-120 68q-5 2 -10 0zM221 500v-500h-55v500h55z" />
    <glyph glyph-name="idieresis" unicode="&#xef;" horiz-adv-x="364" 
d="M106 588q-15 0 -25.5 9.5t-10.5 22.5q0 14 10.5 23.5t25.5 9.5q16 0 26.5 -9.5t10.5 -23.5q0 -13 -10.5 -22.5t-26.5 -9.5zM257 588q-15 0 -25.5 9.5t-10.5 22.5q0 14 10.5 23.5t25.5 9.5q16 0 26.5 -9.5t10.5 -23.5q0 -13 -10.5 -22.5t-26.5 -9.5zM211 500v-500h-55v500
h55z" />
    <glyph glyph-name="eth" unicode="&#xf0;" horiz-adv-x="561" 
d="M510 253v-1q7 -117 -53 -191q-23 -32 -75 -55.5t-127 -14.5q-101 14 -153 87.5t-52 177.5q0 22 6 49.5t23 61.5t41.5 62t66.5 49t94 25q79 4 140 -28q-27 91 -76 146l-102 -61l-4 6l101 61q-79 86 -188 49l-3 8q151 59 244 -26l71 43l4 -6l-70 -42q105 -102 111 -364
q1 -12 1 -36zM275 0q63 -14 117.5 36t63.5 131l-1 80q-3 121 -30 214q-68 33 -133 23q-55 -9 -94.5 -38t-57.5 -67t-25.5 -69t-7.5 -58q0 -89 42 -160.5t126 -91.5z" />
    <glyph glyph-name="ntilde" unicode="&#xf1;" horiz-adv-x="548" 
d="M395 655l4 -8q-28 -30 -54 -39.5t-45 -3t-39 18t-37 22.5t-39.5 11t-45.5 -17l-7 7q32 29 58.5 37.5t44 0.5t36 -20t34.5 -23t39.5 -8.5t50.5 22.5zM482 347v-51q0 -36 -1 -92.5t-0.5 -80.5t2.5 -55.5t8 -46t16 -21.5h-55q-5 2 -9.5 7t-7 14.5t-4.5 19t-3 26t-1.5 31
t-0.5 38t0.5 43t0.5 50v55.5v51q0 25 -5.5 49.5t-20 53.5t-47 45.5t-79.5 13.5q-49 -3 -104.5 -49t-55.5 -89v-317l6 -42h-61v500l55 -10v-55q32 32 75 52t85 23q106 7 156.5 -44t50.5 -119z" />
    <glyph glyph-name="ograve" unicode="&#xf2;" horiz-adv-x="600" 
d="M373 567h-9l-154 133h42zM310 -13q-107 0 -178.5 75t-71.5 187t71.5 186t178.5 74t178.5 -74t71.5 -186t-71.5 -187t-178.5 -75zM415 29q77 36 100 120t-20 180q-48 99 -129 138t-160 1q-77 -36 -100.5 -120.5t19.5 -180.5q46 -100 127.5 -138.5t162.5 0.5z" />
    <glyph glyph-name="oacute" unicode="&#xf3;" horiz-adv-x="600" 
d="M232 567h-9l121 133h42zM310 -13q-107 0 -178.5 75t-71.5 187t71.5 186t178.5 74t178.5 -74t71.5 -186t-71.5 -187t-178.5 -75zM415 29q77 36 100 120t-20 180q-48 99 -129 138t-160 1q-77 -36 -100.5 -120.5t19.5 -180.5q46 -100 127.5 -138.5t162.5 0.5z" />
    <glyph glyph-name="ocircumflex" unicode="&#xf4;" horiz-adv-x="620" 
d="M291 632l-120 -68v8l126 103l124 -103v-8l-120 68q-5 2 -10 0zM310 -13q-107 0 -178.5 75t-71.5 187t71.5 186t178.5 74t178.5 -74t71.5 -186t-71.5 -187t-178.5 -75zM415 29q77 36 100 120t-20 180q-48 99 -129 138t-160 1q-77 -36 -100.5 -120.5t19.5 -180.5
q46 -100 127.5 -138.5t162.5 0.5z" />
    <glyph glyph-name="otilde" unicode="&#xf5;" horiz-adv-x="620" 
d="M177 610l-7 7q32 29 58.5 37.5t44 0.5t36 -20t34.5 -23t39.5 -8.5t50.5 22.5l4 -8q-28 -30 -54 -39.5t-45 -3t-39 18t-37 22.5t-39.5 11t-45.5 -17zM310 -13q-107 0 -178.5 75t-71.5 187t71.5 186t178.5 74t178.5 -74t71.5 -186t-71.5 -187t-178.5 -75zM415 29
q77 36 100 120t-20 180q-48 99 -129 138t-160 1q-77 -36 -100.5 -120.5t19.5 -180.5q46 -100 127.5 -138.5t162.5 0.5z" />
    <glyph glyph-name="odieresis" unicode="&#xf6;" horiz-adv-x="600" 
d="M218 574q-15 0 -25.5 9.5t-10.5 22.5q0 14 10.5 23.5t25.5 9.5q16 0 26.5 -9.5t10.5 -23.5q0 -13 -10.5 -22.5t-26.5 -9.5zM369 574q-15 0 -25.5 9.5t-10.5 22.5q0 14 10.5 23.5t25.5 9.5q16 0 26.5 -9.5t10.5 -23.5q0 -13 -10.5 -22.5t-26.5 -9.5zM310 -13
q-107 0 -178.5 75t-71.5 187t71.5 186t178.5 74t178.5 -74t71.5 -186t-71.5 -187t-178.5 -75zM415 29q77 36 100 120t-20 180q-48 99 -129 138t-160 1q-77 -36 -100.5 -120.5t19.5 -180.5q46 -100 127.5 -138.5t162.5 0.5z" />
    <glyph glyph-name="divide" unicode="&#xf7;" horiz-adv-x="600" 
d="M281 464q-10 0 -17 6.5t-7 16.5t7 16.5t17 6.5t16.5 -6.5t6.5 -16.5t-6.5 -16.5t-16.5 -6.5zM510 323h-460v15h460v-15zM281 146q-10 0 -17 6.5t-7 16.5t7 16.5t17 6.5t16.5 -6.5t6.5 -16.5t-6.5 -16.5t-16.5 -6.5z" />
    <glyph glyph-name="oslash" unicode="&#xf8;" horiz-adv-x="672" 
d="M622 607l-114 -143q49 -34 77.5 -90.5t28.5 -124.5q0 -112 -71.5 -187t-178.5 -75q-106 0 -178 74l-123 -154h-13l129 162q-65 73 -65 180q0 112 71.5 186t178.5 74q75 0 135 -38l109 136h14zM179 167q15 -31 33 -57l258 324q-47 40 -102 49.5t-108 -15.5
q-77 -36 -100.5 -120.5t19.5 -180.5zM469 29q77 36 100 120t-20 180q-27 58 -71 98l-260 -326q50 -64 117.5 -83.5t133.5 11.5z" />
    <glyph glyph-name="ugrave" unicode="&#xf9;" horiz-adv-x="548" 
d="M221 700l121 -133h-9l-154 133h42zM488 73q5 -59 25 -73h-55q-20 9 -25 74q-68 -68 -160 -75q-106 -7 -156.5 44t-50.5 119v296l-6 42h61v-326q0 -25 5.5 -49.5t20 -53.5t47 -45.5t79.5 -13.5q46 3 99 44.5t60 83.5q0 18 0.5 66t0.5 78v174l-6 42h61v-427z" />
    <glyph glyph-name="uacute" unicode="&#xfa;" horiz-adv-x="573" 
d="M332 700h42l-154 -133h-9zM488 73q5 -59 25 -73h-55q-20 9 -25 74q-68 -68 -160 -75q-106 -7 -156.5 44t-50.5 119v296l-6 42h61v-326q0 -25 5.5 -49.5t20 -53.5t47 -45.5t79.5 -13.5q46 3 99 44.5t60 83.5q0 18 0.5 66t0.5 78v174l-6 42h61v-427z" />
    <glyph glyph-name="ucircumflex" unicode="&#xfb;" horiz-adv-x="573" 
d="M408 564l-120 68q-5 2 -10 0l-120 -68v8l126 103l124 -103v-8zM488 73q5 -59 25 -73h-55q-20 9 -25 74q-68 -68 -160 -75q-106 -7 -156.5 44t-50.5 119v296l-6 42h61v-326q0 -25 5.5 -49.5t20 -53.5t47 -45.5t79.5 -13.5q46 3 99 44.5t60 83.5q0 18 0.5 66t0.5 78v174
l-6 42h61v-427z" />
    <glyph glyph-name="udieresis" unicode="&#xfc;" horiz-adv-x="548" 
d="M193 594q-15 0 -25.5 9.5t-10.5 22.5q0 14 10.5 23.5t25.5 9.5q16 0 26.5 -9.5t10.5 -23.5q0 -13 -10.5 -22.5t-26.5 -9.5zM344 594q-15 0 -25.5 9.5t-10.5 22.5q0 14 10.5 23.5t25.5 9.5q16 0 26.5 -9.5t10.5 -23.5q0 -13 -10.5 -22.5t-26.5 -9.5zM488 73q5 -59 25 -73
h-55q-20 9 -25 74q-68 -68 -160 -75q-106 -7 -156.5 44t-50.5 119v296l-6 42h61v-326q0 -25 5.5 -49.5t20 -53.5t47 -45.5t79.5 -13.5q46 3 99 44.5t60 83.5q0 18 0.5 66t0.5 78v174l-6 42h61v-427z" />
    <glyph glyph-name="yacute" unicode="&#xfd;" horiz-adv-x="531" 
d="M356 687h42l-154 -133h-9zM292 83l163 417h26l-233 -581q-29 -73 -71 -107t-76 -34v10.5v10t0.5 9t1 9t2 7.5t4 7t6 5t8 4.5t10.5 1.5q68 8 88 60l42 106l-213 492h67z" />
    <glyph glyph-name="thorn" unicode="&#xfe;" horiz-adv-x="538" 
d="M295 494q96 -13 144.5 -82.5t48.5 -167.5q0 -20 -6 -46t-21.5 -58t-39 -58.5t-63 -46.5t-88.5 -23q-90 -6 -165 46v-253h-55v855h55v-232q20 31 69.5 53t120.5 13zM260 30q42 7 75 26.5t51 44t29.5 54t15 51.5t3.5 42q0 83 -39.5 149t-118.5 84q-58 13 -111 -28t-60 -90
v-291q89 -53 155 -42z" />
    <glyph glyph-name="ydieresis" unicode="&#xff;" horiz-adv-x="600" 
d="M196 612q-15 0 -25.5 9.5t-10.5 22.5q0 14 10.5 23.5t25.5 9.5q16 0 26.5 -9.5t10.5 -23.5q0 -13 -10.5 -22.5t-26.5 -9.5zM347 612q-15 0 -25.5 9.5t-10.5 22.5q0 14 10.5 23.5t25.5 9.5q16 0 26.5 -9.5t10.5 -23.5q0 -13 -10.5 -22.5t-26.5 -9.5zM292 83l163 417h26
l-233 -581q-29 -73 -71 -107t-76 -34v10.5v10t0.5 9t1 9t2 7.5t4 7t6 5t8 4.5t10.5 1.5q68 8 88 60l42 106l-213 492h67z" />
    <glyph glyph-name="Amacron" unicode="&#x100;" horiz-adv-x="667" 
d="M247 806h160v-20h-160v20zM617 0h-60l-96 242h-301l-93 -242h-17l270 700h21zM309 628l-144 -375h292z" />
    <glyph glyph-name="amacron" unicode="&#x101;" horiz-adv-x="493" 
d="M175 613h160v-20h-160v20zM443 73q5 -59 25 -73h-55q-22 9 -25 85q-26 -44 -78.5 -68.5t-105 -24t-96.5 28.5t-55 79q-10 51 16 103t97 82q92 39 222 39v48q0 60 -36.5 91.5t-103.5 31.5q-59 0 -116 -55q-4 -4 -7.5 -5.5t-7.5 -1.5t-6.5 0.5t-7.5 4t-7 5t-8 6.5t-8 6
q61 53 168 53q89 0 140 -42.5t55 -118.5v-274zM388 284v26q-73 0 -111 -8t-77 -28q-115 -61 -101 -161q5 -34 29 -56.5t58.5 -29t71.5 -1.5t72.5 26t56.5 54q0 19 0.5 78t0.5 100z" />
    <glyph glyph-name="Abreve" unicode="&#x102;" horiz-adv-x="667" 
d="M456 821l5 -4q-30 -46 -79.5 -63t-99 0t-78.5 63l4 4q44 -41 124 -41t124 41zM617 0h-60l-96 242h-301l-93 -242h-17l270 700h21zM309 628l-144 -375h292z" />
    <glyph glyph-name="abreve" unicode="&#x103;" horiz-adv-x="493" 
d="M391 650l5 -4q-46 -70 -129 -70t-128 70l4 4q44 -40 124 -40t124 40zM443 73q5 -59 25 -73h-55q-22 9 -25 85q-26 -44 -78.5 -68.5t-105 -24t-96.5 28.5t-55 79q-10 51 16 103t97 82q92 39 222 39v48q0 60 -36.5 91.5t-103.5 31.5q-59 0 -116 -55q-4 -4 -7.5 -5.5
t-7.5 -1.5t-6.5 0.5t-7.5 4t-7 5t-8 6.5t-8 6q61 53 168 53q89 0 140 -42.5t55 -118.5v-274zM388 284v26q-73 0 -111 -8t-77 -28q-115 -61 -101 -161q5 -34 29 -56.5t58.5 -29t71.5 -1.5t72.5 26t56.5 54q0 19 0.5 78t0.5 100z" />
    <glyph glyph-name="Aogonek" unicode="&#x104;" horiz-adv-x="673" 
d="M524 -85q0 -33 22 -52t61 -19v-4q-55 0 -86.5 20.5t-31.5 53.5q0 37 29 61.5t65 24.5h-26l-96 242h-301l-93 -242h-17l270 700h21l276 -700h6q-30 0 -64.5 -29.5t-34.5 -55.5zM309 628l-144 -375h292z" />
    <glyph glyph-name="aogonek" unicode="&#x105;" horiz-adv-x="518" 
d="M468 0h-24q-30 0 -64.5 -29.5t-34.5 -55.5q0 -33 22 -52t61 -19v-4q-55 0 -86.5 20.5t-31.5 53.5q0 37 29 61.5t65 24.5h9q-22 9 -25 85q-26 -44 -78.5 -68.5t-105 -24t-96.5 28.5t-55 79q-10 51 16 103t97 82q92 39 222 39v48q0 60 -36.5 91.5t-103.5 31.5
q-59 0 -116 -55q-4 -4 -7.5 -5.5t-7.5 -1.5t-6.5 0.5t-7.5 4t-7 5t-8 6.5t-8 6q61 53 168 53q89 0 140 -42.5t55 -118.5v-274q5 -59 25 -73zM99 113q5 -34 29 -56.5t58.5 -29t71.5 -1.5t72.5 26t56.5 54q0 19 0.5 78t0.5 100v26q-73 0 -111 -8t-77 -28q-115 -61 -101 -161z
" />
    <glyph glyph-name="Cacute" unicode="&#x106;" horiz-adv-x="708" 
d="M311 758h-9l121 133h42zM379 -18q-145 12 -239 121t-90 260q4 145 97.5 245t229.5 104q62 4 138.5 -21.5t130.5 -68.5l-31 -41q-19 -15 -27 8q-18 47 -76.5 78t-128.5 31q-114 0 -190 -102t-76 -255q0 -128 75 -222.5t187 -109.5q67 -10 139.5 24t113.5 96q9 17 22 11
q8 -5 -4 -19q-41 -64 -118.5 -103.5t-152.5 -35.5z" />
    <glyph glyph-name="cacute" unicode="&#x107;" horiz-adv-x="548" 
d="M215 570h-9l121 133h42zM287 496q-77 0 -126 -69t-49 -185q0 -135 82 -201t203 -14q38 16 80 80l21 -7q-76 -117 -207 -113q-106 2 -174.5 79.5t-66.5 191.5q4 105 72 176.5t165 74.5q61 0 105 -16t93 -57q-2 -1 -6.5 -5t-6 -5t-5 -3.5t-5 -2.5t-5 -0.5t-5.5 0.5t-5 3
t-6 5q-41 39 -75 53.5t-79 14.5z" />
    <glyph glyph-name="Cdotaccent" unicode="&#x10a;" horiz-adv-x="708" 
d="M388 766q-15 0 -25.5 9.5t-10.5 22.5q0 14 10.5 23.5t25.5 9.5q16 0 26.5 -9.5t10.5 -23.5q0 -13 -10.5 -22.5t-26.5 -9.5zM379 -18q-145 12 -239 121t-90 260q4 145 97.5 245t229.5 104q62 4 138.5 -21.5t130.5 -68.5l-31 -41q-19 -15 -27 8q-18 47 -76.5 78t-128.5 31
q-114 0 -190 -102t-76 -255q0 -128 75 -222.5t187 -109.5q67 -10 139.5 24t113.5 96q9 17 22 11q8 -5 -4 -19q-41 -64 -118.5 -103.5t-152.5 -35.5z" />
    <glyph glyph-name="cdotaccent" unicode="&#x10b;" horiz-adv-x="554" 
d="M276 594q-15 0 -25.5 9.5t-10.5 22.5q0 14 10.5 23.5t25.5 9.5q16 0 26.5 -9.5t10.5 -23.5q0 -13 -10.5 -22.5t-26.5 -9.5zM287 496q-77 0 -126 -69t-49 -185q0 -135 82 -201t203 -14q38 16 80 80l21 -7q-76 -117 -207 -113q-106 2 -174.5 79.5t-66.5 191.5
q4 105 72 176.5t165 74.5q61 0 105 -16t93 -57q-2 -1 -6.5 -5t-6 -5t-5 -3.5t-5 -2.5t-5 -0.5t-5.5 0.5t-5 3t-6 5q-41 39 -75 53.5t-79 14.5z" />
    <glyph glyph-name="Ccaron" unicode="&#x10c;" horiz-adv-x="707" 
d="M511 868l-126 -103l-124 103v8l120 -68q5 -2 10 0l120 68v-8zM379 -18q-145 12 -239 121t-90 260q4 145 97.5 245t229.5 104q62 4 138.5 -21.5t130.5 -68.5l-31 -41q-19 -15 -27 8q-18 47 -76.5 78t-128.5 31q-114 0 -190 -102t-76 -255q0 -128 75 -222.5t187 -109.5
q67 -10 139.5 24t113.5 96q9 17 22 11q8 -5 -4 -19q-41 -64 -118.5 -103.5t-152.5 -35.5z" />
    <glyph glyph-name="ccaron" unicode="&#x10d;" horiz-adv-x="554" 
d="M423 675l-126 -103l-124 103v8l120 -68q5 -2 10 0l120 68v-8zM287 496q-77 0 -126 -69t-49 -185q0 -135 82 -201t203 -14q38 16 80 80l21 -7q-76 -117 -207 -113q-106 2 -174.5 79.5t-66.5 191.5q4 105 72 176.5t165 74.5q61 0 105 -16t93 -57q-2 -1 -6.5 -5t-6 -5
t-5 -3.5t-5 -2.5t-5 -0.5t-5.5 0.5t-5 3t-6 5q-41 39 -75 53.5t-79 14.5z" />
    <glyph glyph-name="Dcaron" unicode="&#x10e;" horiz-adv-x="640" 
d="M392 863v-8l-126 -103l-124 103v8l120 -68q5 -2 10 0zM179 700q193 0 302 -90t109 -251q0 -169 -108.5 -264t-302.5 -95h-129v700h129zM105 17h75q164 0 258 87.5t98 246.5q1 159 -94 246.5t-267 88.5l-70 1v-670z" />
    <glyph glyph-name="dcaron" unicode="&#x10f;" horiz-adv-x="562" 
d="M402 752v-8l-126 -103l-124 103v8l120 -68q5 -2 10 0zM457 454v248h55v-702h-61l6 42v19q-23 -32 -75 -55.5t-127 -14.5q-101 14 -153 87.5t-52 177.5q0 22 6 49.5t23 61.5t41.5 62t66.5 49t94 25q97 6 176 -49zM457 131v308q-93 56 -165 45q-55 -9 -94.5 -38t-57.5 -67
t-25.5 -69t-7.5 -58q0 -88 42 -157t126 -89q62 -14 118.5 29t63.5 96z" />
    <glyph glyph-name="Dcroat" unicode="&#x110;" horiz-adv-x="732" 
d="M271 700q193 0 302 -90t109 -251q0 -169 -108.5 -264t-302.5 -95h-129v373h-92v10h92v317h129zM197 17h75q164 0 258 87.5t98 246.5q1 159 -94 246.5t-267 88.5l-70 1v-304h113v-10h-113v-356z" />
    <glyph glyph-name="dcroat" unicode="&#x111;" horiz-adv-x="640" 
d="M512 596h78v-10h-78v-586h-61l6 42v19q-23 -32 -75 -55.5t-127 -14.5q-101 14 -153 87.5t-52 177.5q0 22 6 49.5t23 61.5t41.5 62t66.5 49t94 25q97 6 176 -49v132h-127v10h127v106h55v-106zM457 131v308q-93 56 -165 45q-55 -9 -94.5 -38t-57.5 -67t-25.5 -69t-7.5 -58
q0 -88 42 -157t126 -89q62 -14 118.5 29t63.5 96z" />
    <glyph glyph-name="Emacron" unicode="&#x112;" horiz-adv-x="536" 
d="M206 808h160v-20h-160v20zM486 700v-11h-381v-279h231v-11h-231v-388h381v-11h-436v700h436z" />
    <glyph glyph-name="emacron" unicode="&#x113;" horiz-adv-x="563" 
d="M209 606h160v-20h-160v20zM111 302q-3 -42 3 -87q15 -118 101 -173t173 -16q58 24 87 81l21 -7q-75 -118 -211 -113q-104 4 -169.5 77.5t-65.5 188.5q0 116 69.5 186t176.5 70q87 0 147 -56.5t70 -150.5h-402zM287 500q-76 0 -121 -51.5t-54 -135.5h351q-10 91 -57 139
t-119 48z" />
    <glyph glyph-name="Edotaccent" unicode="&#x116;" horiz-adv-x="537" 
d="M268 753q-15 0 -25.5 9.5t-10.5 22.5q0 14 10.5 23.5t25.5 9.5q16 0 26.5 -9.5t10.5 -23.5q0 -13 -10.5 -22.5t-26.5 -9.5zM486 700v-11h-381v-279h231v-11h-231v-388h381v-11h-436v700h436z" />
    <glyph glyph-name="edotaccent" unicode="&#x117;" horiz-adv-x="563" 
d="M286 594q-15 0 -25.5 9.5t-10.5 22.5q0 14 10.5 23.5t25.5 9.5q16 0 26.5 -9.5t10.5 -23.5q0 -13 -10.5 -22.5t-26.5 -9.5zM111 302q-3 -42 3 -87q15 -118 101 -173t173 -16q58 24 87 81l21 -7q-75 -118 -211 -113q-104 4 -169.5 77.5t-65.5 188.5q0 116 69.5 186
t176.5 70q87 0 147 -56.5t70 -150.5h-402zM287 500q-76 0 -121 -51.5t-54 -135.5h351q-10 91 -57 139t-119 48z" />
    <glyph glyph-name="Eogonek" unicode="&#x118;" horiz-adv-x="541" 
d="M392 -85q0 -33 22 -52t61 -19v-4q-55 0 -86.5 20.5t-31.5 53.5q0 37 29 61.5t65 24.5h-401v700h436v-11h-381v-279h231v-11h-231v-388h381v-11h5q-30 0 -64.5 -29.5t-34.5 -55.5z" />
    <glyph glyph-name="eogonek" unicode="&#x119;" horiz-adv-x="563" 
d="M111 302q-3 -42 3 -87q15 -118 101 -173t173 -16q58 24 87 81l21 -7q-68 -107 -191 -113q-30 -5 -59.5 -33t-29.5 -51q0 -33 22 -52t61 -19v-4q-55 0 -86.5 20.5t-31.5 53.5q0 35 27.5 59.5t62.5 26.5q-99 9 -160 81.5t-61 183.5q0 116 69.5 186t176.5 70q87 0 147 -56.5
t70 -150.5h-402zM287 500q-76 0 -121 -51.5t-54 -135.5h351q-10 91 -57 139t-119 48z" />
    <glyph glyph-name="Ecaron" unicode="&#x11a;" horiz-adv-x="536" 
d="M399 866v-8l-126 -103l-124 103v8l120 -68q5 -2 10 0zM486 700v-11h-381v-279h231v-11h-231v-388h381v-11h-436v700h436z" />
    <glyph glyph-name="ecaron" unicode="&#x11b;" horiz-adv-x="563" 
d="M413 699v-8l-126 -103l-124 103v8l120 -68q5 -2 10 0zM111 302q-3 -42 3 -87q15 -118 101 -173t173 -16q58 24 87 81l21 -7q-75 -118 -211 -113q-104 4 -169.5 77.5t-65.5 188.5q0 116 69.5 186t176.5 70q87 0 147 -56.5t70 -150.5h-402zM287 500q-76 0 -121 -51.5
t-54 -135.5h351q-10 91 -57 139t-119 48z" />
    <glyph glyph-name="Gbreve" unicode="&#x11e;" horiz-adv-x="757" 
d="M516 840l5 -3q-28 -46 -76.5 -63t-98.5 0t-82 63l4 6q48 -41 127.5 -42t120.5 39zM707 261v-3q-6 -70 -38 -123.5t-78.5 -83t-95.5 -44t-96 -14.5q-151 0 -250 93t-99 255q0 159 102 263.5t248 104.5q154 0 269 -90l-31 -41q-18 -14 -27 8q-20 51 -76 80t-133 29
q-71 0 -130.5 -27.5t-105.5 -94.5t-58 -166q-20 -162 66.5 -282.5t224.5 -120.5q107 0 181.5 68t83.5 199l-1 27h-197v11h241v-48z" />
    <glyph glyph-name="gbreve" unicode="&#x11f;" horiz-adv-x="616" 
d="M446 661l5 -3q-43 -70 -125.5 -70t-131.5 70l4 6q48 -41 127.5 -42t120.5 39zM501 408v75l55 17v-422q0 -56 -11.5 -103t-30.5 -80t-44 -58t-53 -39t-57 -21t-55.5 -6t-48.5 8v21q15 -11 43.5 -14.5t63.5 7.5t65.5 38t51.5 85.5t21 139.5v33q-73 -102 -201 -102
q-108 0 -179 75.5t-71 192.5q0 108 71.5 181t178.5 73q62 0 114.5 -27t86.5 -74zM296 4q85 -2 143 63t62 169v15q-2 104 -57.5 172t-139.5 71q-89 4 -140 -59t-51 -180q0 -116 49 -182t134 -69z" />
    <glyph glyph-name="Gdotaccent" unicode="&#x120;" horiz-adv-x="757" 
d="M392 758q-15 0 -25.5 9.5t-10.5 22.5q0 14 10.5 23.5t25.5 9.5q16 0 26.5 -9.5t10.5 -23.5q0 -13 -10.5 -22.5t-26.5 -9.5zM707 261v-3q-6 -70 -38 -123.5t-78.5 -83t-95.5 -44t-96 -14.5q-151 0 -250 93t-99 255q0 159 102 263.5t248 104.5q154 0 269 -90l-31 -41
q-18 -14 -27 8q-20 51 -76 80t-133 29q-71 0 -130.5 -27.5t-105.5 -94.5t-58 -166q-20 -162 66.5 -282.5t224.5 -120.5q107 0 181.5 68t83.5 199l-1 27h-197v11h241v-48z" />
    <glyph glyph-name="gdotaccent" unicode="&#x121;" horiz-adv-x="616" 
d="M313 586q-15 0 -25.5 9.5t-10.5 22.5q0 14 10.5 23.5t25.5 9.5q16 0 26.5 -9.5t10.5 -23.5q0 -13 -10.5 -22.5t-26.5 -9.5zM501 408v75l55 17v-422q0 -56 -11.5 -103t-30.5 -80t-44 -58t-53 -39t-57 -21t-55.5 -6t-48.5 8v21q15 -11 43.5 -14.5t63.5 7.5t65.5 38
t51.5 85.5t21 139.5v33q-73 -102 -201 -102q-108 0 -179 75.5t-71 192.5q0 108 71.5 181t178.5 73q62 0 114.5 -27t86.5 -74zM296 4q85 -2 143 63t62 169v15q-2 104 -57.5 172t-139.5 71q-89 4 -140 -59t-51 -180q0 -116 49 -182t134 -69z" />
    <glyph glyph-name="uni0122" unicode="&#x122;" horiz-adv-x="757" 
d="M707 261v-3q-6 -70 -38 -123.5t-78.5 -83t-95.5 -44t-96 -14.5q-151 0 -250 93t-99 255q0 159 102 263.5t248 104.5q154 0 269 -90l-31 -41q-18 -14 -27 8q-20 51 -76 80t-133 29q-71 0 -130.5 -27.5t-105.5 -94.5t-58 -166q-20 -162 66.5 -282.5t224.5 -120.5
q107 0 181.5 68t83.5 199l-1 27h-197v11h241v-48zM385 -39q29 0 29 -33q2 -40 -10 -63.5t-49 -35.5q-6 4 1 8q4 4 7.5 8t5 8.5t3 8t1 8.5t-0.5 8t-1.5 8.5t-2 7.5t-2.5 8.5t-2 7.5q-3 8 -3 17v2q0 32 24 32z" />
    <glyph glyph-name="uni0123" unicode="&#x123;" horiz-adv-x="616" 
d="M304 574q-29 0 -29 33q-2 40 10 63.5t49 35.5q6 -4 -1 -8q-4 -4 -7.5 -8t-5 -8.5t-3 -8t-1 -8.5t0.5 -8t1.5 -8.5t2 -7.5t2.5 -8.5t2 -7.5q3 -7 3 -17v-2q0 -32 -24 -32zM501 408v75l55 17v-422q0 -56 -11.5 -103t-30.5 -80t-44 -58t-53 -39t-57 -21t-55.5 -6t-48.5 8v21
q15 -11 43.5 -14.5t63.5 7.5t65.5 38t51.5 85.5t21 139.5v33q-73 -102 -201 -102q-108 0 -179 75.5t-71 192.5q0 108 71.5 181t178.5 73q62 0 114.5 -27t86.5 -74zM296 4q85 -2 143 63t62 169v15q-2 104 -57.5 172t-139.5 71q-89 4 -140 -59t-51 -180q0 -116 49 -182
t134 -69z" />
    <glyph glyph-name="Hbar" unicode="&#x126;" horiz-adv-x="760" 
d="M624 333h86v-10h-86v-323h-55v323h-372v-323h-55v323h-92v10h92v367h55v-218h372v218h55v-367zM197 471v-138h372v138h-372z" />
    <glyph glyph-name="hbar" unicode="&#x127;" horiz-adv-x="657" 
d="M591 73q5 -59 25 -73h-55q-5 2 -9.5 7t-7 14.5t-4.5 19t-3 26t-1.5 31t-0.5 38t0.5 43t0.5 50v55.5v51q0 25 -5.5 49.5t-20 53.5t-47 45.5t-79.5 13.5q-49 -3 -104.5 -49t-55.5 -89v-359h-55v625h-109v10h109v66h55v-66h96v-10h-96v-194q73 73 160 79q106 7 156.5 -44
t50.5 -119v-274z" />
    <glyph glyph-name="Imacron" unicode="&#x12a;" horiz-adv-x="300" 
d="M230 778h-160v20h160v-20zM198 0h-55v700h55v-700z" />
    <glyph glyph-name="imacron" unicode="&#x12b;" horiz-adv-x="300" 
d="M230 615h-160v20h160v-20zM174 500v-500h-55v500h55z" />
    <glyph glyph-name="Iogonek" unicode="&#x12e;" horiz-adv-x="295" 
d="M170 700h55v-700h-21q-30 0 -64.5 -29.5t-34.5 -55.5q0 -33 22 -52t61 -19v-4q-55 0 -86.5 20.5t-31.5 53.5q0 37 29 61.5t65 24.5h6v700z" />
    <glyph glyph-name="iogonek" unicode="&#x12f;" horiz-adv-x="277" 
d="M170 596q-15 0 -25.5 9.5t-10.5 22.5q0 14 10.5 23.5t25.5 9.5q16 0 26.5 -9.5t10.5 -23.5q0 -13 -10.5 -22.5t-26.5 -9.5zM199 0h5q-30 0 -64.5 -29.5t-34.5 -55.5q0 -33 22 -52t61 -19v-4q-55 0 -86.5 20.5t-31.5 53.5q0 37 29 61.5t65 24.5h-20v500h55v-500z" />
    <glyph glyph-name="Idotaccent" unicode="&#x130;" horiz-adv-x="222" 
d="M106 776q-15 0 -25.5 9.5t-10.5 22.5q0 14 10.5 23.5t25.5 9.5q16 0 26.5 -9.5t10.5 -23.5q0 -13 -10.5 -22.5t-26.5 -9.5zM152 0h-55v700h55v-700z" />
    <glyph glyph-name="dotlessi" unicode="&#x131;" horiz-adv-x="155" 
d="M105 500v-500h-55v500h55z" />
    <glyph glyph-name="uni0136" unicode="&#x136;" horiz-adv-x="556" 
d="M415 700l-167 -199l288 -501h-47l-272 464l-112 -133v-331h-55v700h55v-342l286 342h24zM266 -19q29 0 29 -33q2 -40 -10 -63.5t-49 -35.5q-6 4 1 8q4 4 7.5 8t5 8.5t3 8t1 8.5t-0.5 8t-1.5 8.5t-2 7.5t-2.5 8.5t-2 7.5q-3 8 -3 17v2q0 32 24 32z" />
    <glyph glyph-name="uni0137" unicode="&#x137;" horiz-adv-x="498" 
d="M403 500l-213 -192l258 -308h-51l-241 277l-35 -32v-245h-61l6 42v659h55v-434l256 233h26zM231 -39q29 0 29 -33q2 -40 -10 -63.5t-49 -35.5q-6 4 1 8q4 4 7.5 8t5 8.5t3 8t1 8.5t-0.5 8t-1.5 8.5t-2 7.5t-2.5 8.5t-2 7.5q-3 8 -3 17v2q0 32 24 32z" />
    <glyph glyph-name="Lacute" unicode="&#x139;" horiz-adv-x="516" 
d="M314 880h42l-154 -133h-9zM105 11h361v-11h-416v700h55v-689z" />
    <glyph glyph-name="lacute" unicode="&#x13a;" horiz-adv-x="263" 
d="M50 776l121 133h42l-154 -133h-9zM149 73q5 -59 25 -73h-55q-5 2 -9.5 7t-7 14.5t-4.5 19t-3 26t-1.5 31t-0.5 38t0.5 43t0.5 50v55.5v416h55v-627z" />
    <glyph glyph-name="uni013B" unicode="&#x13b;" horiz-adv-x="516" 
d="M105 11h361v-11h-416v700h55v-689zM252 -30q29 0 29 -33q2 -40 -10 -63.5t-49 -35.5q-6 4 1 8q4 4 7.5 8t5 8.5t3 8t1 8.5t-0.5 8t-1.5 8.5t-2 7.5t-2.5 8.5t-2 7.5q-3 7 -3 17v2q0 32 24 32z" />
    <glyph glyph-name="uni013C" unicode="&#x13c;" horiz-adv-x="163" 
d="M116 73q5 -59 25 -73h-55q-5 2 -9.5 7t-7 14.5t-4.5 19t-3 26t-1.5 31t-0.5 38t0.5 43t0.5 50v55.5v416h55v-627zM83 -39q29 0 29 -33q2 -40 -10 -63.5t-49 -35.5q-6 4 1 8q4 4 7.5 8t5 8.5t3 8t1 8.5t-0.5 8t-1.5 8.5t-2 7.5t-2.5 8.5t-2 7.5q-3 8 -3 17v2q0 32 24 32z
" />
    <glyph glyph-name="Lcaron" unicode="&#x13d;" horiz-adv-x="516" 
d="M383 860v-8l-126 -103l-124 103v8l120 -68q5 -2 10 0zM105 11h361v-11h-416v700h55v-689z" />
    <glyph glyph-name="lcaron" unicode="&#x13e;" horiz-adv-x="350" 
d="M180 853l120 68v-8l-126 -103l-124 103v8l120 -68q5 -2 10 0zM208 73q5 -59 25 -73h-55q-5 2 -9.5 7t-7 14.5t-4.5 19t-3 26t-1.5 31t-0.5 38t0.5 43t0.5 50v55.5v416h55v-627z" />
    <glyph glyph-name="Lslash" unicode="&#x141;" horiz-adv-x="635" 
d="M224 308v-297h361v-11h-416v272l-106 -69h-13l119 78v419h55v-383l284 186h14z" />
    <glyph glyph-name="lslash" unicode="&#x142;" horiz-adv-x="573" 
d="M272 73q5 -59 25 -73h-55q-5 2 -9.5 7t-7 14.5t-4.5 19t-3 26t-1.5 31t-0.5 38t0.5 43t0.5 50v55.5v29l-154 -101h-13l167 109v379h55v-343l236 155h14l-250 -163v-276z" />
    <glyph glyph-name="Nacute" unicode="&#x143;" horiz-adv-x="625" 
d="M400 879h42l-154 -133h-9zM551 104v596h14v-700h-24l-467 680v-663l-5 -17h-9v700h70z" />
    <glyph glyph-name="nacute" unicode="&#x144;" horiz-adv-x="567" 
d="M304 700h42l-154 -133h-9zM482 347v-51q0 -36 -1 -92.5t-0.5 -80.5t2.5 -55.5t8 -46t16 -21.5h-55q-5 2 -9.5 7t-7 14.5t-4.5 19t-3 26t-1.5 31t-0.5 38t0.5 43t0.5 50v55.5v51q0 25 -5.5 49.5t-20 53.5t-47 45.5t-79.5 13.5q-49 -3 -104.5 -49t-55.5 -89v-317l6 -42h-61
v500l55 -10v-55q32 32 75 52t85 23q106 7 156.5 -44t50.5 -119z" />
    <glyph glyph-name="uni0145" unicode="&#x145;" horiz-adv-x="625" 
d="M551 104v596h14v-700h-24l-467 680v-663l-5 -17h-9v700h70zM335 -39q29 0 29 -33q2 -40 -10 -63.5t-49 -35.5q-6 4 1 8q4 4 7.5 8t5 8.5t3 8t1 8.5t-0.5 8t-1.5 8.5t-2 7.5t-2.5 8.5t-2 7.5q-3 8 -3 17v2q0 32 24 32z" />
    <glyph glyph-name="uni0146" unicode="&#x146;" horiz-adv-x="567" 
d="M482 347v-51q0 -36 -1 -92.5t-0.5 -80.5t2.5 -55.5t8 -46t16 -21.5h-55q-5 2 -9.5 7t-7 14.5t-4.5 19t-3 26t-1.5 31t-0.5 38t0.5 43t0.5 50v55.5v51q0 25 -5.5 49.5t-20 53.5t-47 45.5t-79.5 13.5q-49 -3 -104.5 -49t-55.5 -89v-317l6 -42h-61v500l55 -10v-55
q32 32 75 52t85 23q106 7 156.5 -44t50.5 -119zM250 -39q29 0 29 -33q2 -40 -10 -63.5t-49 -35.5q-6 4 1 8q4 4 7.5 8t5 8.5t3 8t1 8.5t-0.5 8t-1.5 8.5t-2 7.5t-2.5 8.5t-2 7.5q-3 8 -3 17v2q0 32 24 32z" />
    <glyph glyph-name="Ncaron" unicode="&#x147;" horiz-adv-x="625" 
d="M490 864v-8l-126 -103l-124 103v8l120 -68q5 -2 10 0zM551 104v596h14v-700h-24l-467 680v-663l-5 -17h-9v700h70z" />
    <glyph glyph-name="ncaron" unicode="&#x148;" horiz-adv-x="548" 
d="M386 699v-8l-126 -103l-124 103v8l120 -68q5 -2 10 0zM482 347v-51q0 -36 -1 -92.5t-0.5 -80.5t2.5 -55.5t8 -46t16 -21.5h-55q-5 2 -9.5 7t-7 14.5t-4.5 19t-3 26t-1.5 31t-0.5 38t0.5 43t0.5 50v55.5v51q0 25 -5.5 49.5t-20 53.5t-47 45.5t-79.5 13.5
q-49 -3 -104.5 -49t-55.5 -89v-317l6 -42h-61v500l55 -10v-55q32 32 75 52t85 23q106 7 156.5 -44t50.5 -119z" />
    <glyph glyph-name="Eng" unicode="&#x14a;" horiz-adv-x="625" 
d="M556 700h9v-720q0 -103 -51.5 -153.5t-123.5 -50.5q-59 0 -112 32.5t-74 84.5q24 9 34.5 11t18.5 -3t11 -21q14 -46 46.5 -72t75.5 -25q52 2 86 44t34 117v101l-440 640v-685h-9v384l-1 316h70l426 -603v603z" />
    <glyph glyph-name="eng" unicode="&#x14b;" horiz-adv-x="542" 
d="M275 510q106 7 156.5 -44t50.5 -119v-367q0 -105 -35.5 -154.5t-109.5 -49.5q-56 0 -103.5 25t-62.5 62q33 10 43.5 6.5t19.5 -17t14.5 -27.5t28 -25.5t60.5 -11.5q47 0 68.5 37.5t21.5 118.5v391q0 25 -5.5 50.5t-20 55t-47 47t-79.5 14.5q-48 -3 -104 -51t-56 -92v-317
l6 -42h-61v500l55 -10v-55q32 32 75 52t85 23z" />
    <glyph glyph-name="Omacron" unicode="&#x14c;" horiz-adv-x="802" 
d="M483 788h-160v20h160v-20zM401 -10q-151 0 -251 103.5t-100 258.5t100 257.5t251 102.5t251 -102.5t100 -257.5t-100 -258.5t-251 -103.5zM556 44q70 32 111 100.5t42.5 153t-38.5 175.5q-44 89 -117.5 145t-152 65.5t-156.5 -22.5q-107 -49 -141 -174t27 -258
q32 -67 81.5 -116t106 -72.5t119 -23.5t118.5 27z" />
    <glyph glyph-name="omacron" unicode="&#x14d;" horiz-adv-x="600" 
d="M387 615h-160v20h160v-20zM310 -13q-107 0 -178.5 75t-71.5 187t71.5 186t178.5 74t178.5 -74t71.5 -186t-71.5 -187t-178.5 -75zM415 29q77 36 100 120t-20 180q-48 99 -129 138t-160 1q-77 -36 -100.5 -120.5t19.5 -180.5q46 -100 127.5 -138.5t162.5 0.5z" />
    <glyph glyph-name="Ohungarumlaut" unicode="&#x150;" horiz-adv-x="802" 
d="M326 782h-9l121 133h42zM398 782h-9l121 133h42zM401 -10q-151 0 -251 103.5t-100 258.5t100 257.5t251 102.5t251 -102.5t100 -257.5t-100 -258.5t-251 -103.5zM556 44q70 32 111 100.5t42.5 153t-38.5 175.5q-44 89 -117.5 145t-152 65.5t-156.5 -22.5
q-107 -49 -141 -174t27 -258q32 -67 81.5 -116t106 -72.5t119 -23.5t118.5 27z" />
    <glyph glyph-name="ohungarumlaut" unicode="&#x151;" horiz-adv-x="600" 
d="M181 567h-9l121 133h42zM253 567h-9l121 133h42zM310 -13q-107 0 -178.5 75t-71.5 187t71.5 186t178.5 74t178.5 -74t71.5 -186t-71.5 -187t-178.5 -75zM415 29q77 36 100 120t-20 180q-48 99 -129 138t-160 1q-77 -36 -100.5 -120.5t19.5 -180.5q46 -100 127.5 -138.5
t162.5 0.5z" />
    <glyph glyph-name="OE" unicode="&#x152;" horiz-adv-x="1198" 
d="M1148 700v-11h-381v-279h231v-11h-231v-388h381v-11h-436v182q-44 -89 -126 -140.5t-185 -51.5q-151 0 -251 105.5t-100 263.5t100 262.5t251 104.5q103 0 185 -51.5t126 -139.5v165h436zM556 45q70 32 111.5 102.5t42.5 156.5t-39 178q-44 91 -117.5 148t-152 67
t-156.5 -23q-107 -50 -141 -177.5t27 -262.5q64 -139 188 -192.5t237 3.5z" />
    <glyph glyph-name="oe" unicode="&#x153;" horiz-adv-x="1028" 
d="M576 302q-3 -41 3 -87q15 -118 101 -173t173 -16q58 24 87 81q9 18 22 14q10 -4 -1 -21q-75 -118 -211 -113q-78 3 -135 46t-83 115q-27 -73 -89.5 -117t-142.5 -44q-107 0 -178.5 75t-71.5 187t71.5 186t178.5 74q79 0 141 -43t90 -114q26 74 87.5 115.5t142.5 41.5
q74 0 139.5 -50.5t77.5 -146.5q0 -2 -0.5 -4t-2 -3t-3 -1.5t-3.5 -1t-4 -0.5h-389zM752 495q-76 0 -121 -49.5t-54 -132.5h351q-9 90 -56 136t-120 46zM405 30q77 36 100 119.5t-20 179.5q-48 99 -129.5 138t-160.5 1q-76 -36 -99.5 -120.5t19.5 -180.5q46 -99 127.5 -137.5
t162.5 0.5z" />
    <glyph glyph-name="Racute" unicode="&#x154;" horiz-adv-x="597" 
d="M314 892h42l-154 -133h-9zM547 0h-51l-188 333q-8 -2 -84.5 -22.5t-118.5 -34.5v-276h-55v700h53q24 0 74 3t85.5 4.5t82.5 -3t78.5 -16.5t58 -39t35.5 -68q26 -112 -64 -183q-38 -30 -104 -52zM105 686v-393q33 12 112 34t127 42.5t77 51.5q55 57 38 144q-6 30 -23 52
t-41.5 34.5t-55.5 20.5t-64.5 10.5t-68.5 3.5t-68 0h-33z" />
    <glyph glyph-name="racute" unicode="&#x155;" horiz-adv-x="404" 
d="M259 700h42l-154 -133h-9zM236 511q76 7 138 -43q-46 -36 -64 -18q-31 30 -46.5 37.5t-37.5 5.5q-40 -3 -67.5 -31t-37.5 -78v-384h-61l6 42v458l55 -10v-47q44 62 115 68z" />
    <glyph glyph-name="uni0156" unicode="&#x156;" horiz-adv-x="597" 
d="M349 346l198 -346h-51l-188 333q-8 -2 -84.5 -22.5t-118.5 -34.5v-276h-55v700h53q24 0 74 3t85.5 4.5t82.5 -3t78.5 -16.5t58 -39t35.5 -68q26 -112 -64 -183q-38 -30 -104 -52zM105 686v-393q33 12 112 34t127 42.5t77 51.5q55 57 38 144q-6 30 -23 52t-41.5 34.5
t-55.5 20.5t-64.5 10.5t-68.5 3.5t-68 0h-33zM279 -39q29 0 29 -33q2 -40 -10 -63.5t-49 -35.5q-6 4 1 8q4 4 7.5 8t5 8.5t3 8t1 8.5t-0.5 8t-1.5 8.5t-2 7.5t-2.5 8.5t-2 7.5q-3 8 -3 17v2q0 32 24 32z" />
    <glyph glyph-name="uni0157" unicode="&#x157;" horiz-adv-x="415" 
d="M237 511q76 7 138 -43q-46 -36 -64 -18q-31 30 -46.5 37.5t-37.5 5.5q-40 -3 -67.5 -31t-37.5 -78v-384h-61l6 42v458l55 -10v-47q44 62 115 68zM83 -39q29 0 29 -33q2 -40 -10 -63.5t-49 -35.5q-6 4 1 8q4 4 7.5 8t5 8.5t3 8t1 8.5t-0.5 8t-1.5 8.5t-2 7.5t-2.5 8.5
t-2 7.5q-3 8 -3 17v2q0 32 24 32z" />
    <glyph glyph-name="Rcaron" unicode="&#x158;" horiz-adv-x="619" 
d="M390 868v-8l-126 -103l-124 103v8l120 -68q5 -2 10 0zM547 0h-51l-188 333q-8 -2 -84.5 -22.5t-118.5 -34.5v-276h-55v700h53q24 0 74 3t85.5 4.5t82.5 -3t78.5 -16.5t58 -39t35.5 -68q26 -112 -64 -183q-38 -30 -104 -52zM105 686v-393q33 12 112 34t127 42.5t77 51.5
q55 57 38 144q-6 30 -23 52t-41.5 34.5t-55.5 20.5t-64.5 10.5t-68.5 3.5t-68 0h-33z" />
    <glyph glyph-name="rcaron" unicode="&#x159;" horiz-adv-x="414" 
d="M345 684v-8l-126 -103l-124 103v8l120 -68q5 -2 10 0zM236 511q76 7 138 -43q-46 -36 -64 -18q-31 30 -46.5 37.5t-37.5 5.5q-40 -3 -67.5 -31t-37.5 -78v-384h-61l6 42v458l55 -10v-47q44 62 115 68z" />
    <glyph glyph-name="Sacute" unicode="&#x15a;" horiz-adv-x="609" 
d="M218 738h-9l121 133h42zM265 -7q-75 5 -135 39.5t-91 91.5l31 33q14 16 24.5 15t9.5 -23q9 -133 162 -144q113 -8 180 48.5t39 136.5q-10 31 -47 60t-84.5 50t-100 48t-95.5 53t-69.5 65.5t-23.5 85.5q5 75 77 119t174 34q109 -12 183 -83l-20 -39q-6 -7 -13 -3.5
t-9 14.5q-13 44 -50.5 69t-90.5 29q-85 8 -145 -25.5t-66 -93.5q-4 -50 32 -87.5t94 -62t118.5 -48t114.5 -60.5t74 -85q26 -66 -2.5 -123t-102 -88.5t-168.5 -25.5z" />
    <glyph glyph-name="sacute" unicode="&#x15b;" horiz-adv-x="490" 
d="M169 567h-9l121 133h42zM227 -7q-132 3 -177 76q23 37 45 38q14 0 18 -20v-2q13 -77 115 -80q77 -3 127 37t30 94q-10 26 -47.5 48.5t-83 40.5t-89.5 38t-73 51.5t-27 72.5q1 57 54.5 92t127.5 30q101 -6 154 -51q-16 -39 -33 -39q-8 1 -12 11q-11 30 -40.5 47.5
t-68.5 19.5q-63 2 -104 -19.5t-42 -59.5q-1 -37 26.5 -64.5t71 -45.5t89 -35.5t86 -44.5t56.5 -62q32 -72 -28.5 -124.5t-174.5 -48.5z" />
    <glyph glyph-name="Scedilla" unicode="&#x15e;" horiz-adv-x="609" 
d="M538 230q38 -94 -33.5 -165t-203.5 -73l-13 -33q41 -2 71.5 -26t30.5 -60q0 -33 -31.5 -53.5t-86.5 -20.5v4q39 0 61 19t22 52t-25.5 53t-57.5 20l7 45q-3 0 -7 0.5t-7 0.5q-75 5 -135 39.5t-91 91.5l31 33q14 16 24.5 15t9.5 -23q9 -133 162 -144q113 -8 180 48.5
t39 136.5q-10 31 -47 60t-84.5 50t-100 48t-95.5 53t-69.5 65.5t-23.5 85.5q5 75 77 119t174 34q109 -12 183 -83l-20 -39q-6 -7 -13 -3.5t-9 14.5q-13 44 -50.5 69t-90.5 29q-85 8 -145 -25.5t-66 -93.5q-4 -50 32 -87.5t94 -62t118.5 -48t114.5 -60.5t74 -85z" />
    <glyph glyph-name="scedilla" unicode="&#x15f;" horiz-adv-x="490" 
d="M430 166q31 -68 -23 -119.5t-159 -53.5l-14 -37q41 -2 71.5 -26t30.5 -60q0 -33 -31.5 -53.5t-86.5 -20.5v4q39 0 61 19t22 52t-25.5 53t-57.5 20l8 49q-131 3 -176 76q23 37 45 38q14 0 18 -20v-2q13 -77 115 -80q77 -3 127 37t30 94q-10 26 -47.5 48.5t-83 40.5
t-89.5 38t-73 51.5t-27 72.5q1 57 54.5 92t127.5 30q101 -6 154 -51q-16 -39 -33 -39q-8 1 -12 11q-11 30 -40.5 47.5t-68.5 19.5q-63 2 -104 -19.5t-42 -59.5q-1 -37 26.5 -64.5t71 -45.5t89 -35.5t86 -44.5t56.5 -62z" />
    <glyph glyph-name="Scaron" unicode="&#x160;" horiz-adv-x="609" 
d="M419 854l-126 -103l-124 103v8l120 -68q5 -2 10 0l120 68v-8zM265 -7q-75 5 -135 39.5t-91 91.5l31 33q14 16 24.5 15t9.5 -23q9 -133 162 -144q113 -8 180 48.5t39 136.5q-10 31 -47 60t-84.5 50t-100 48t-95.5 53t-69.5 65.5t-23.5 85.5q5 75 77 119t174 34
q109 -12 183 -83l-20 -39q-6 -7 -13 -3.5t-9 14.5q-13 44 -50.5 69t-90.5 29q-85 8 -145 -25.5t-66 -93.5q-4 -50 32 -87.5t94 -62t118.5 -48t114.5 -60.5t74 -85q26 -66 -2.5 -123t-102 -88.5t-168.5 -25.5z" />
    <glyph glyph-name="scaron" unicode="&#x161;" horiz-adv-x="490" 
d="M359 683l-126 -103l-124 103v8l120 -68q5 -2 10 0l120 68v-8zM227 -7q-132 3 -177 76q23 37 45 38q14 0 18 -20v-2q13 -77 115 -80q77 -3 127 37t30 94q-10 26 -47.5 48.5t-83 40.5t-89.5 38t-73 51.5t-27 72.5q1 57 54.5 92t127.5 30q101 -6 154 -51q-16 -39 -33 -39
q-8 1 -12 11q-11 30 -40.5 47.5t-68.5 19.5q-63 2 -104 -19.5t-42 -59.5q-1 -37 26.5 -64.5t71 -45.5t89 -35.5t86 -44.5t56.5 -62q32 -72 -28.5 -124.5t-174.5 -48.5z" />
    <glyph glyph-name="uni0162" unicode="&#x162;" horiz-adv-x="636" 
d="M351 0h-19l-15 -39q41 -2 71.5 -26t30.5 -60q0 -33 -31.5 -53.5t-86.5 -20.5v4q39 0 61 19t22 52t-25.5 53t-57.5 20l8 51h-13v689h-246v11h536v-11h-235v-689z" />
    <glyph glyph-name="uni0163" unicode="&#x163;" horiz-adv-x="365" 
d="M210 73q5 -59 25 -73h-39l-15 -39q41 -2 71.5 -26t30.5 -60q0 -33 -31.5 -53.5t-86.5 -20.5v4q39 0 61 19t22 52t-25.5 53t-57.5 20l8 51h7q-5 2 -9.5 7t-7 14.5t-4.5 19t-3 26t-1.5 31t-0.5 38t0.5 43t0.5 50v55.5v205h-105v11h105v200h55v-200h105v-11h-105v-416z" />
    <glyph glyph-name="Tcaron" unicode="&#x164;" horiz-adv-x="636" 
d="M451 872v-8l-126 -103l-124 103v8l120 -68q5 -2 10 0zM586 700v-11h-235v-689h-55v689h-246v11h536z" />
    <glyph glyph-name="tcaron" unicode="&#x165;" horiz-adv-x="365" 
d="M308 861v-8l-126 -103l-124 103v8l120 -68q5 -2 10 0zM210 73q5 -59 25 -73h-55q-5 2 -9.5 7t-7 14.5t-4.5 19t-3 26t-1.5 31t-0.5 38t0.5 43t0.5 50v55.5v205h-105v11h105v200h55v-200h105v-11h-105v-416z" />
    <glyph glyph-name="Tbar" unicode="&#x166;" horiz-adv-x="636" 
d="M586 700v-11h-235v-306h102v-10h-102v-373h-55v373h-103v10h103v306h-246v11h536z" />
    <glyph glyph-name="tbar" unicode="&#x167;" horiz-adv-x="365" 
d="M315 500v-11h-105v-106h102v-10h-102v-300q5 -59 25 -73h-55q-5 2 -9.5 7t-7 14.5t-4.5 19t-3 26t-1.5 31t-0.5 38t0.5 43t0.5 50v55.5v89h-103v10h103v106h-105v11h105v200h55v-200h105z" />
    <glyph glyph-name="Umacron" unicode="&#x16a;" horiz-adv-x="632" 
d="M238 801h160v-20h-160v20zM558 240v460h14v-462q-1 -103 -71 -173.5t-174 -70.5q-114 0 -190.5 64t-76.5 156v486h55v-474q0 -89 61 -151.5t151 -62.5q100 0 165.5 66t65.5 162z" />
    <glyph glyph-name="umacron" unicode="&#x16b;" horiz-adv-x="548" 
d="M191 635h160v-20h-160v20zM488 73q5 -59 25 -73h-55q-20 9 -25 74q-68 -68 -160 -75q-106 -7 -156.5 44t-50.5 119v296l-6 42h61v-326q0 -25 5.5 -49.5t20 -53.5t47 -45.5t79.5 -13.5q46 3 99 44.5t60 83.5q0 18 0.5 66t0.5 78v174l-6 42h61v-427z" />
    <glyph glyph-name="Uring" unicode="&#x16e;" horiz-adv-x="632" 
d="M305 742q-31 0 -54.5 21t-23.5 51q0 31 23 51.5t55 20.5t56 -20.5t24 -51.5q0 -30 -24 -51t-56 -21zM267 873q-32 -18 3 -79q15 -27 36 -37.5t38 -0.5q32 17 -3 79q-15 26 -35.5 37t-38.5 1zM558 240v460h14v-462q-1 -103 -71 -173.5t-174 -70.5q-114 0 -190.5 64
t-76.5 156v486h55v-474q0 -89 61 -151.5t151 -62.5q100 0 165.5 66t65.5 162z" />
    <glyph glyph-name="uring" unicode="&#x16f;" horiz-adv-x="573" 
d="M244 571q-31 0 -54.5 21t-23.5 51q0 31 23 51.5t55 20.5t56 -20.5t24 -51.5q0 -30 -24 -51t-56 -21zM206 702q-32 -18 3 -79q15 -27 36 -37.5t38 -0.5q32 17 -3 79q-15 26 -35.5 37t-38.5 1zM488 73q5 -59 25 -73h-55q-20 9 -25 74q-68 -68 -160 -75q-106 -7 -156.5 44
t-50.5 119v296l-6 42h61v-326q0 -25 5.5 -49.5t20 -53.5t47 -45.5t79.5 -13.5q46 3 99 44.5t60 83.5q0 18 0.5 66t0.5 78v174l-6 42h61v-427z" />
    <glyph glyph-name="Uhungarumlaut" unicode="&#x170;" horiz-adv-x="632" 
d="M339 884h42l-154 -133h-9zM453 884l-154 -133h-9l121 133h42zM558 240v460h14v-462q-1 -103 -71 -173.5t-174 -70.5q-114 0 -190.5 64t-76.5 156v486h55v-474q0 -89 61 -151.5t151 -62.5q100 0 165.5 66t65.5 162z" />
    <glyph glyph-name="uhungarumlaut" unicode="&#x171;" horiz-adv-x="548" 
d="M290 700h42l-154 -133h-9zM404 700l-154 -133h-9l121 133h42zM488 73q5 -59 25 -73h-55q-20 9 -25 74q-68 -68 -160 -75q-106 -7 -156.5 44t-50.5 119v296l-6 42h61v-326q0 -25 5.5 -49.5t20 -53.5t47 -45.5t79.5 -13.5q46 3 99 44.5t60 83.5q0 18 0.5 66t0.5 78v174
l-6 42h61v-427z" />
    <glyph glyph-name="Uogonek" unicode="&#x172;" horiz-adv-x="632" 
d="M558 240v460h14v-462q-1 -102 -69.5 -172.5t-171.5 -71.5q-27 -11 -49.5 -35t-22.5 -44q0 -33 22 -52t61 -19v-4q-55 0 -86.5 20.5t-31.5 53.5q0 29 19 51t48 31q-101 10 -166 72t-65 146v486h55v-474q0 -89 61 -151.5t151 -62.5q100 0 165.5 66t65.5 162z" />
    <glyph glyph-name="uogonek" unicode="&#x173;" horiz-adv-x="548" 
d="M488 73q5 -59 25 -73h-34q-30 0 -64.5 -29.5t-34.5 -55.5q0 -33 22 -52t61 -19v-4q-55 0 -86.5 20.5t-31.5 53.5q0 37 29 61.5t65 24.5h19q-20 9 -25 74q-68 -68 -160 -75q-106 -7 -156.5 44t-50.5 119v296l-6 42h61v-326q0 -25 5.5 -49.5t20 -53.5t47 -45.5t79.5 -13.5
q46 3 99 44.5t60 83.5q0 18 0.5 66t0.5 78v174l-6 42h61v-427z" />
    <glyph glyph-name="Wcircumflex" unicode="&#x174;" horiz-adv-x="891" 
d="M568 772l-120 68q-5 2 -10 0l-120 -68v8l126 103l124 -103v-8zM643 84l172 616h26l-200 -700h-37l-167 564l-146 -564h-43l-198 700h65l176 -611l135 514l-29 97h64z" />
    <glyph glyph-name="wcircumflex" unicode="&#x175;" horiz-adv-x="752" 
d="M526 598l-120 68q-5 2 -10 0l-120 -68v8l126 103l124 -103v-8zM559 90l129 410h24l-156 -500h-22l-2 5l-144 385l-122 -390h-22l-2 5l-182 495h65l144 -409l106 335l-28 74h64z" />
    <glyph glyph-name="Ycircumflex" unicode="&#x176;" horiz-adv-x="573" 
d="M422 762l-120 68q-5 2 -10 0l-120 -68v8l126 103l124 -103v-8zM497 700h26l-210 -334v-366h-55v363l-208 337h67l188 -310z" />
    <glyph glyph-name="ycircumflex" unicode="&#x177;" horiz-adv-x="531" 
d="M431 595l-120 68q-5 2 -10 0l-120 -68v8l126 103l124 -103v-8zM292 83l163 417h26l-233 -581q-29 -73 -71 -107t-76 -34v10.5v10t0.5 9t1 9t2 7.5t4 7t6 5t8 4.5t10.5 1.5q68 8 88 60l42 106l-213 492h67z" />
    <glyph glyph-name="Ydieresis" unicode="&#x178;" horiz-adv-x="573" 
d="M223 776q-15 0 -25.5 9.5t-10.5 22.5q0 14 10.5 23.5t25.5 9.5q16 0 26.5 -9.5t10.5 -23.5q0 -13 -10.5 -22.5t-26.5 -9.5zM374 776q-15 0 -25.5 9.5t-10.5 22.5q0 14 10.5 23.5t25.5 9.5q16 0 26.5 -9.5t10.5 -23.5q0 -13 -10.5 -22.5t-26.5 -9.5zM497 700h26l-210 -334
v-366h-55v363l-208 337h67l188 -310z" />
    <glyph glyph-name="Zacute" unicode="&#x179;" horiz-adv-x="623" 
d="M389 882h42l-154 -133h-9zM573 700l-455 -689h421v-11h-489l449 689h-420v11h494z" />
    <glyph glyph-name="zacute" unicode="&#x17a;" horiz-adv-x="473" 
d="M292 700h42l-154 -133h-9zM423 500l-305 -489h271v-11h-339l299 489h-270v11h344z" />
    <glyph glyph-name="Zdotaccent" unicode="&#x17b;" horiz-adv-x="623" 
d="M335 775q-15 0 -25.5 9.5t-10.5 22.5q0 14 10.5 23.5t25.5 9.5q16 0 26.5 -9.5t10.5 -23.5q0 -13 -10.5 -22.5t-26.5 -9.5zM573 700l-455 -689h421v-11h-489l449 689h-420v11h494z" />
    <glyph glyph-name="zdotaccent" unicode="&#x17c;" horiz-adv-x="473" 
d="M236 594q-15 0 -25.5 9.5t-10.5 22.5q0 14 10.5 23.5t25.5 9.5q16 0 26.5 -9.5t10.5 -23.5q0 -13 -10.5 -22.5t-26.5 -9.5zM423 500l-305 -489h271v-11h-339l299 489h-270v11h344z" />
    <glyph glyph-name="Zcaron" unicode="&#x17d;" horiz-adv-x="623" 
d="M465 882v-8l-126 -103l-124 103v8l120 -68q5 -2 10 0zM573 700l-455 -689h421v-11h-489l449 689h-420v11h494z" />
    <glyph glyph-name="zcaron" unicode="&#x17e;" horiz-adv-x="473" 
d="M372 699v-8l-126 -103l-124 103v8l120 -68q5 -2 10 0zM423 500l-305 -489h271v-11h-339l299 489h-270v11h344z" />
    <glyph glyph-name="uni0218" unicode="&#x218;" horiz-adv-x="609" 
d="M538 230q26 -66 -2.5 -123t-102 -88.5t-168.5 -25.5q-75 5 -135 39.5t-91 91.5l31 33q14 16 24.5 15t9.5 -23q9 -133 162 -144q113 -8 180 48.5t39 136.5q-10 31 -47 60t-84.5 50t-100 48t-95.5 53t-69.5 65.5t-23.5 85.5q5 75 77 119t174 34q109 -12 183 -83l-20 -39
q-6 -7 -13 -3.5t-9 14.5q-13 44 -50.5 69t-90.5 29q-85 8 -145 -25.5t-66 -93.5q-4 -50 32 -87.5t94 -62t118.5 -48t114.5 -60.5t74 -85zM291 -39q29 0 29 -33q2 -40 -10 -63.5t-49 -35.5q-6 4 1 8q4 4 7.5 8t5 8.5t3 8t1 8.5t-0.5 8t-1.5 8.5t-2 7.5t-2.5 8.5t-2 7.5
q-3 8 -3 17v2q0 32 24 32z" />
    <glyph glyph-name="uni0219" unicode="&#x219;" horiz-adv-x="490" 
d="M430 166q32 -72 -28.5 -124.5t-174.5 -48.5q-132 3 -177 76q23 37 45 38q14 0 18 -20v-2q13 -77 115 -80q77 -3 127 37t30 94q-10 26 -47.5 48.5t-83 40.5t-89.5 38t-73 51.5t-27 72.5q1 57 54.5 92t127.5 30q101 -6 154 -51q-16 -39 -33 -39q-8 1 -12 11
q-11 30 -40.5 47.5t-68.5 19.5q-63 2 -104 -19.5t-42 -59.5q-1 -37 26.5 -64.5t71 -45.5t89 -35.5t86 -44.5t56.5 -62zM230 -39q29 0 29 -33q2 -40 -10 -63.5t-49 -35.5q-6 4 1 8q4 4 7.5 8t5 8.5t3 8t1 8.5t-0.5 8t-1.5 8.5t-2 7.5t-2.5 8.5t-2 7.5q-3 8 -3 17v2
q0 32 24 32z" />
    <glyph glyph-name="uni021A" unicode="&#x21a;" horiz-adv-x="636" 
d="M586 700v-11h-235v-689h-55v689h-246v11h536zM319 -39q29 0 29 -33q2 -40 -10 -63.5t-49 -35.5q-6 4 1 8q4 4 7.5 8t5 8.5t3 8t1 8.5t-0.5 8t-1.5 8.5t-2 7.5t-2.5 8.5t-2 7.5q-3 8 -3 17v2q0 32 24 32z" />
    <glyph glyph-name="uni021B" unicode="&#x21b;" horiz-adv-x="365" 
d="M210 73q5 -59 25 -73h-55q-5 2 -9.5 7t-7 14.5t-4.5 19t-3 26t-1.5 31t-0.5 38t0.5 43t0.5 50v55.5v205h-105v11h105v200h55v-200h105v-11h-105v-416zM179 -39q29 0 29 -33q2 -40 -10 -63.5t-49 -35.5q-6 4 1 8q4 4 7.5 8t5 8.5t3 8t1 8.5t-0.5 8t-1.5 8.5t-2 7.5
t-2.5 8.5t-2 7.5q-3 8 -3 17v2q0 32 24 32z" />
    <glyph glyph-name="circumflex" unicode="&#x2c6;" horiz-adv-x="350" 
d="M170 656l-120 -68v8l126 103l124 -103v-8l-120 68q-5 2 -10 0z" />
    <glyph glyph-name="caron" unicode="&#x2c7;" horiz-adv-x="350" 
d="M300 691l-126 -103l-124 103v8l120 -68q5 -2 10 0l120 68v-8z" />
    <glyph glyph-name="breve" unicode="&#x2d8;" horiz-adv-x="357" 
d="M50 663l4 4q43 -41 123.5 -41t124.5 41l5 -4q-30 -46 -79.5 -63t-99 0t-78.5 63z" />
    <glyph glyph-name="dotaccent" unicode="&#x2d9;" horiz-adv-x="173" 
d="M86 594q-15 0 -25.5 9.5t-10.5 22.5q0 14 10.5 23.5t25.5 9.5q16 0 26.5 -9.5t10.5 -23.5q0 -13 -10.5 -22.5t-26.5 -9.5z" />
    <glyph glyph-name="ring" unicode="&#x2da;" horiz-adv-x="258" 
d="M128 576q-31 0 -54.5 21t-23.5 51q0 31 23 51.5t55 20.5t56 -20.5t24 -51.5q0 -30 -24 -51t-56 -21zM166 589q33 18 -2 80q-16 27 -35.5 38t-37.5 1q-33 -19 2 -80q15 -27 35.5 -38t37.5 -1z" />
    <glyph glyph-name="ogonek" unicode="&#x2db;" horiz-adv-x="234" 
d="M168 -156v-4q-55 0 -86.5 20.5t-31.5 53.5q0 37 29 61.5t65 24.5h40q-30 0 -64.5 -29.5t-34.5 -55.5q0 -33 22 -52t61 -19z" />
    <glyph glyph-name="tilde" unicode="&#x2dc;" horiz-adv-x="367" 
d="M57 639l-7 7q32 29 58.5 37.5t44 0.5t36 -20t34.5 -23t39.5 -8.5t50.5 22.5l4 -8q-28 -30 -54 -39.5t-45 -3t-39 18t-37 22.5t-39.5 11t-45.5 -17z" />
    <glyph glyph-name="hungarumlaut" unicode="&#x2dd;" horiz-adv-x="335" 
d="M59 567h-9l121 133h42zM131 567h-9l121 133h42z" />
    <glyph glyph-name="gravecomb" unicode="&#x300;" 
d="M-50 567h-9l-154 133h42z" />
    <glyph glyph-name="acutecomb" unicode="&#x301;" 
d="M-204 567h-9l121 133h42z" />
    <glyph glyph-name="uni0302" unicode="&#x302;" 
d="M-180 656l-120 -68v8l126 103l124 -103v-8l-120 68q-5 2 -10 0z" />
    <glyph glyph-name="tildecomb" unicode="&#x303;" 
d="M-310 639l-7 7q32 29 58.5 37.5t44 0.5t36 -20t34.5 -23t39.5 -8.5t50.5 22.5l4 -8q-28 -30 -54 -39.5t-45 -3t-39 18t-37 22.5t-39.5 11t-45.5 -17z" />
    <glyph glyph-name="uni0304" unicode="&#x304;" 
d="M-50 615h-160v20h160v-20z" />
    <glyph glyph-name="uni0306" unicode="&#x306;" 
d="M-307 658l4 6q48 -41 127.5 -42t120.5 39l5 -3q-43 -70 -125.5 -70t-131.5 70z" />
    <glyph glyph-name="uni0307" unicode="&#x307;" 
d="M-87 594q-15 0 -25.5 9.5t-10.5 22.5q0 14 10.5 23.5t25.5 9.5q16 0 26.5 -9.5t10.5 -23.5q0 -13 -10.5 -22.5t-26.5 -9.5z" />
    <glyph glyph-name="uni0308" unicode="&#x308;" 
d="M-238 594q-15 0 -25.5 9.5t-10.5 22.5q0 14 10.5 23.5t25.5 9.5q16 0 26.5 -9.5t10.5 -23.5q0 -13 -10.5 -22.5t-26.5 -9.5zM-87 594q-15 0 -25.5 9.5t-10.5 22.5q0 14 10.5 23.5t25.5 9.5q16 0 26.5 -9.5t10.5 -23.5q0 -13 -10.5 -22.5t-26.5 -9.5z" />
    <glyph glyph-name="uni030A" unicode="&#x30a;" 
d="M-130 576q-31 0 -54.5 21t-23.5 51q0 31 23 51.5t55 20.5t56 -20.5t24 -51.5q0 -30 -24 -51t-56 -21zM-91 590q32 17 -3 79q-15 26 -35.5 37t-38.5 1q-32 -18 3 -79q15 -27 36 -37.5t38 -0.5z" />
    <glyph glyph-name="uni030B" unicode="&#x30b;" 
d="M-305 567h-9l121 133h42zM-204 567h-9l121 133h42z" />
    <glyph glyph-name="uni030C" unicode="&#x30c;" 
d="M-50 691l-124 -103l-126 103v8l120 -68q5 -2 10 0l120 68v-8z" />
    <glyph glyph-name="uni0312" unicode="&#x312;" 
d="M-53 683q6 -4 -1 -8q-4 -4 -7.5 -8t-5 -8.5t-3 -8t-1 -8.5t0.5 -8t1.5 -8.5t2 -7.5t2.5 -8.5t2 -7.5q3 -8 3 -17v-2q0 -32 -24 -32q-29 0 -29 33q-2 40 10 63.5t49 35.5z" />
    <glyph glyph-name="uni0326" unicode="&#x326;" 
d="M-51 -72q2 -40 -10 -63.5t-49 -35.5q-6 4 1 8q4 4 7.5 8t5 8.5t3 8t1 8.5t-0.5 8t-1.5 8.5t-2 7.5t-2.5 8.5t-2 7.5q-3 8 -3 17v2q0 32 24 32q29 0 29 -33z" />
    <glyph glyph-name="uni0327" unicode="&#x327;" 
d="M-168 -199v4q39 0 61 19t22 52t-25.5 53t-57.5 20l8 51h23l-15 -39q41 -2 71.5 -26t30.5 -60q0 -33 -31.5 -53.5t-86.5 -20.5z" />
    <glyph glyph-name="uni0328" unicode="&#x328;" 
d="M-66 -156v-4q-55 0 -86.5 20.5t-31.5 53.5q0 37 29 61.5t65 24.5h40q-30 0 -64.5 -29.5t-34.5 -55.5q0 -33 22 -52t61 -19z" />
    <glyph glyph-name="uni0335" unicode="&#x335;" 
d="M-50 373h-260v10h260v-10z" />
    <glyph glyph-name="uni0336" unicode="&#x336;" 
d="M-50 373h-660v10h660v-10z" />
    <glyph glyph-name="uni0337" unicode="&#x337;" 
d="M-509 150h-13l458 300h14z" />
    <glyph glyph-name="uni0338" unicode="&#x338;" 
d="M-609 0h-13l558 700h14z" />
    <glyph glyph-name="Wgrave" unicode="&#x1e80;" horiz-adv-x="891" 
d="M374 898l121 -133h-9l-154 133h42zM643 84l172 616h26l-200 -700h-37l-167 564l-146 -564h-43l-198 700h65l176 -611l135 514l-29 97h64z" />
    <glyph glyph-name="wgrave" unicode="&#x1e81;" horiz-adv-x="752" 
d="M356 700l121 -133h-9l-154 133h42zM559 90l129 410h24l-156 -500h-22l-2 5l-144 385l-122 -390h-22l-2 5l-182 495h65l144 -409l106 335l-28 74h64z" />
    <glyph glyph-name="Wacute" unicode="&#x1e82;" horiz-adv-x="886" 
d="M497 913h42l-154 -133h-9zM643 84l172 616h26l-200 -700h-37l-167 564l-146 -564h-43l-198 700h65l176 -611l135 514l-29 97h64z" />
    <glyph glyph-name="wacute" unicode="&#x1e83;" horiz-adv-x="752" 
d="M437 700h42l-154 -133h-9zM559 90l129 410h24l-156 -500h-22l-2 5l-144 385l-122 -390h-22l-2 5l-182 495h65l144 -409l106 335l-28 74h64z" />
    <glyph glyph-name="Wdieresis" unicode="&#x1e84;" horiz-adv-x="891" 
d="M371 768q-15 0 -25.5 9.5t-10.5 22.5q0 14 10.5 23.5t25.5 9.5q16 0 26.5 -9.5t10.5 -23.5q0 -13 -10.5 -22.5t-26.5 -9.5zM522 768q-15 0 -25.5 9.5t-10.5 22.5q0 14 10.5 23.5t25.5 9.5q16 0 26.5 -9.5t10.5 -23.5q0 -13 -10.5 -22.5t-26.5 -9.5zM643 84l172 616h26
l-200 -700h-37l-167 564l-146 -564h-43l-198 700h65l176 -611l135 514l-29 97h64z" />
    <glyph glyph-name="wdieresis" unicode="&#x1e85;" horiz-adv-x="752" 
d="M323 586q-15 0 -25.5 9.5t-10.5 22.5q0 14 10.5 23.5t25.5 9.5q16 0 26.5 -9.5t10.5 -23.5q0 -13 -10.5 -22.5t-26.5 -9.5zM474 586q-15 0 -25.5 9.5t-10.5 22.5q0 14 10.5 23.5t25.5 9.5q16 0 26.5 -9.5t10.5 -23.5q0 -13 -10.5 -22.5t-26.5 -9.5zM559 90l129 410h24
l-156 -500h-22l-2 5l-144 385l-122 -390h-22l-2 5l-182 495h65l144 -409l106 335l-28 74h64z" />
    <glyph glyph-name="Ygrave" unicode="&#x1ef2;" horiz-adv-x="573" 
d="M225 884l121 -133h-9l-154 133h42zM497 700h26l-210 -334v-366h-55v363l-208 337h67l188 -310z" />
    <glyph glyph-name="ygrave" unicode="&#x1ef3;" horiz-adv-x="531" 
d="M236 700l121 -133h-9l-154 133h42zM292 83l163 417h26l-233 -581q-29 -73 -71 -107t-76 -34v10.5v10t0.5 9t1 9t2 7.5t4 7t6 5t8 4.5t10.5 1.5q68 8 88 60l42 106l-213 492h67z" />
    <glyph glyph-name="endash" unicode="&#x2013;" horiz-adv-x="651" 
d="M551 282h-451v16h451v-16z" />
    <glyph glyph-name="emdash" unicode="&#x2014;" horiz-adv-x="1051" 
d="M851 282h-651v16h651v-16z" />
    <glyph glyph-name="quoteleft" unicode="&#x2018;" horiz-adv-x="273" 
d="M173 585v-2q0 -32 -34 -32q-16 0 -27.5 8t-11.5 25q-2 38 17 68.5t52 30.5q6 -4 -1 -8q-6 -7 -7.5 -18t-0.5 -17t5 -21.5t5 -18.5q3 -6 3 -15z" />
    <glyph glyph-name="quoteright" unicode="&#x2019;" horiz-adv-x="233" 
d="M173 650q2 -38 -17 -68.5t-52 -30.5q-6 4 1 8q6 7 7.5 18t0.5 17t-5 21.5t-5 18.5q-3 6 -3 15v2q0 32 34 32q16 0 27.5 -8t11.5 -25z" />
    <glyph glyph-name="quotesinglbase" unicode="&#x201a;" horiz-adv-x="162" 
d="M173 12q2 -34 -19 -65.5t-51 -31.5q-4 3 1 7q7 8 9 20t1.5 21.5t-3 24.5t-2.5 20v2v1v2q0 28 30 28q34 0 34 -29z" />
    <glyph glyph-name="quotedblleft" unicode="&#x201c;" horiz-adv-x="345" 
d="M134 683q16 0 27.5 -8t11.5 -25q2 -38 -17 -68.5t-52 -30.5q-6 4 1 8q6 7 7.5 18t0.5 17t-5 21.5t-5 18.5q-3 6 -3 15v2q0 32 34 32zM285 650q2 -38 -17 -68.5t-52 -30.5q-6 4 1 8q6 7 7.5 18t0.5 17t-5 21.5t-5 18.5q-3 6 -3 15v2q0 32 34 32q16 0 27.5 -8t11.5 -25z
" />
    <glyph glyph-name="quotedblright" unicode="&#x201d;" horiz-adv-x="345" 
d="M134 683q16 0 27.5 -8t11.5 -25q2 -38 -17 -68.5t-52 -30.5q-6 4 1 8q6 7 7.5 18t0.5 17t-5 21.5t-5 18.5q-3 6 -3 15v2q0 32 34 32zM285 650q2 -38 -17 -68.5t-52 -30.5q-6 4 1 8q6 7 7.5 18t0.5 17t-5 21.5t-5 18.5q-3 6 -3 15v2q0 32 34 32q16 0 27.5 -8t11.5 -25z
" />
    <glyph glyph-name="quotedblbase" unicode="&#x201e;" horiz-adv-x="273" 
d="M173 12q2 -34 -19 -65.5t-51 -31.5q-4 3 1 7q7 8 9 20t1.5 21.5t-3 24.5t-2.5 20v2v1v2q0 28 30 28q34 0 34 -29z" />
    <glyph glyph-name="bullet" unicode="&#x2022;" horiz-adv-x="299" 
d="M148 173q-41 0 -69.5 30t-28.5 73q0 40 28.5 70t69.5 30q42 0 71.5 -30t29.5 -70q0 -43 -29.5 -73t-71.5 -30z" />
    <glyph glyph-name="ellipsis" unicode="&#x2026;" horiz-adv-x="297" 
d="M144 85q19 0 32 -12.5t13 -29.5t-13 -29.5t-32 -12.5q-18 0 -31 12.5t-13 29.5t13 29.5t31 12.5z" />
    <glyph glyph-name="fraction" unicode="&#x2044;" horiz-adv-x="738" 
d="M80 -200h-30l576 900h32z" />
    <glyph glyph-name="Euro" unicode="&#x20ac;" horiz-adv-x="780" 
d="M457 616q-104 0 -167.5 -78.5t-66.5 -196.5h266v-7h-266q0 -35 4 -64v-1h262v-8h-261q9 -56 36 -103t64.5 -77t81.5 -47.5t90 -17t85 18.5q72 30 105 98q8 16 11.5 20t9.5 3q11 -5 -1 -26q-43 -68 -109 -103.5t-146 -32.5q-113 4 -189.5 76.5t-92.5 190.5h-123v8h122
q-2 30 -2 46v19h-120v7h121q8 129 91 206.5t206 77.5q56 0 110 -23.5t98.5 -79.5t53.5 -135q1 -7 -4 -9.5t-12 -2.5h-23q-9 114 -75.5 177.5t-158.5 63.5z" />
    <glyph glyph-name="trademark" unicode="&#x2122;" horiz-adv-x="296" 
d="M123 800v-8q0 6 -8 6h-21v-81q0 -5 7 -5h-26v2q7 0 7 3v81h-30v-6l-2 8h73zM239 717q0 -5 7 -5h-7h-12h-7q1 0 4 2t3 3v79l-37 -71l-6 -13l-40 82v-77q0 -5 7 -5h-4h-3h-3h-7q7 0 7 5v78q0 5 -5 5h5h3h11l34 -73l38 73h16q-4 0 -4 -5v-78z" />
    <glyph glyph-name="arrowleft" unicode="&#x2190;" horiz-adv-x="618" 
d="M278 83h-18l-207 167q-9 7 0 16l207 167h18l-165 -167l455 1v-15l-456 -1z" />
    <glyph glyph-name="arrowup" unicode="&#x2191;" horiz-adv-x="450" 
d="M231 0h-15l1 455l-167 -165v18l167 207q9 9 16 0l167 -207v-18l-168 166z" />
    <glyph glyph-name="arrowright" unicode="&#x2192;" horiz-adv-x="618" 
d="M358 83h-18l166 168l-456 1v15l455 -1l-165 167h18l207 -167q9 -9 0 -16z" />
    <glyph glyph-name="arrowdown" unicode="&#x2193;" horiz-adv-x="450" 
d="M217 3l-167 207v18l167 -165l-1 455h15l1 -456l168 166v-18l-167 -207q-7 -9 -16 0z" />
    <glyph glyph-name="arrowboth" unicode="&#x2194;" horiz-adv-x="668" 
d="M278 83h-18l-207 167q-9 7 0 16l207 167h18l-164 -166h440l-164 166h18l207 -167q9 -9 0 -16l-207 -167h-18l166 168h-444z" />
    <glyph glyph-name="uni2196" unicode="&#x2196;" horiz-adv-x="476" 
d="M426 81l-10 -10l-323 321l-2 -236l-12 13l-29 264q0 5 4 8.5t8 3.5l264 -29l13 -12l-234 -2z" />
    <glyph glyph-name="uni2197" unicode="&#x2197;" horiz-adv-x="477" 
d="M384 393l-323 -321l-11 10l322 321l-234 2l13 12l264 29q4 0 8 -3.5t4 -8.5l-29 -264l-12 -13z" />
    <glyph glyph-name="uni2198" unicode="&#x2198;" horiz-adv-x="474" 
d="M413 72l-264 28l-13 13l236 1l-322 323l11 11l321 -323l1 235l13 -13l28 -264q0 -4 -3.5 -8t-7.5 -3z" />
    <glyph glyph-name="uni2199" unicode="&#x2199;" horiz-adv-x="474" 
d="M326 101l-264 -29q-5 0 -8.5 4t-3.5 8l29 264l12 13l2 -234l321 322l10 -11l-321 -323l236 -2z" />
    <glyph glyph-name="minus" unicode="&#x2212;" horiz-adv-x="560" 
d="M510 373h-460v15h460v-15z" />
    <glyph glyph-name="i.loclTRK" horiz-adv-x="213" 
d="M106 594q-15 0 -25.5 9.5t-10.5 22.5q0 14 10.5 23.5t25.5 9.5q16 0 26.5 -9.5t10.5 -23.5q0 -13 -10.5 -22.5t-26.5 -9.5zM136 500v-500h-55v500h55z" />
    <glyph glyph-name="a_n" horiz-adv-x="850" 
d="M593 510q106 7 156.5 -44t50.5 -119v-347h-55v335q0 25 -5.5 50.5t-20 55t-47 47t-79.5 14.5q-48 -3 -104 -51t-56 -92l-1 -1q1 -7 1 -22v-336h-55v85q-26 -44 -78.5 -68.5t-105 -24t-96.5 28.5t-55 79q-10 51 16 103t97 82q92 39 222 39v48q0 60 -37 94t-103 34
q-57 0 -86 -38q-12 -16 -28 -18.5t-28 8.5q62 56 142 56q134 0 178 -91q32 38 80.5 63.5t96.5 29.5zM89 113q6 -42 42 -66.5t81 -26t92 19.5t74 62v213q-71 0 -108.5 -9.5t-79.5 -31.5q-115 -61 -101 -161z" />
    <glyph glyph-name="f_b" horiz-adv-x="883" 
d="M602 503q52 -4 94 -25t66.5 -49t41.5 -62t23 -61.5t6 -49.5q0 -104 -52 -177.5t-153 -87.5q-75 -9 -127 14.5t-75 55.5v-19l6 -42h-61v657q0 52 -27 74t-66 20q-51 -2 -80.5 -43.5t-29.5 -117.5v-90h127v-6h-127v-494h-55v494h-63v6h63v54q0 104 47 154t118 50
q22 0 44 -5.5t47 -18.5t41 -41.5t16 -68.5v-170q79 55 176 49zM608 0q84 20 126 91.5t42 160.5q0 27 -7.5 58t-25.5 69t-57.5 67t-94.5 38q-77 12 -165 -40v-313q7 -53 64 -99t118 -32z" />
    <glyph glyph-name="f_f_b" horiz-adv-x="1126" 
d="M845 503q52 -4 94 -25t66.5 -49t41.5 -62t23 -61.5t6 -49.5q0 -104 -52 -177.5t-153 -87.5q-75 -9 -127 14.5t-75 55.5v-19l6 -42h-61v657q0 52 -27 74t-66 20q-51 -2 -80.5 -43.5t-29.5 -117.5v-90h127v-6h-127v-494h-55v494h-188v-494h-55v494h-63v6h63v54
q0 104 47 154t118 50q42 0 75.5 -16.5t47.5 -35.5q45 52 120 52q22 0 44 -5.5t47 -18.5t41 -41.5t16 -68.5v-170q79 55 176 49zM356 500v54q0 58 15 98q1 37 -26 68.5t-67 30.5q-51 -2 -80.5 -43.5t-29.5 -117.5v-90h188zM851 0q84 20 126 91.5t42 160.5q0 27 -7.5 58
t-25.5 69t-57.5 67t-94.5 38q-77 12 -165 -40v-313q7 -53 64 -99t118 -32z" />
    <glyph glyph-name="f_f_j" horiz-adv-x="707" 
d="M410 590v-90h80v-6h-80v-494h-55v494h-187v-494h-55v494h-63v6h63v54q0 104 47 154t118 50q41 0 74.5 -16t48.5 -36q44 52 119 52q44 0 78.5 -18t47.5 -38q-13 -13 -25.5 -15.5t-17.5 8.5q-26 57 -83 56q-51 -2 -80.5 -43.5t-29.5 -117.5zM168 500h187v54q0 58 16 101
q0 36 -26.5 66.5t-66.5 29.5q-51 -2 -80.5 -43.5t-29.5 -117.5v-90zM602 500h55v-614q0 -71 -52.5 -97t-103.5 15l-2 3l1 3h3q48 -24 73.5 8t25.5 85v597z" />
    <glyph glyph-name="f_f_k" horiz-adv-x="1046" 
d="M669 250v-208l6 -42h-61v657q0 52 -27 74t-66 20q-51 -2 -80.5 -43.5t-29.5 -117.5v-90h127v-6h-127v-494h-55v494h-188v-494h-55v494h-63v6h63v54q0 104 47 154t118 50q42 0 75.5 -16.5t47.5 -35.5q45 52 120 52q22 0 44 -5.5t47 -18.5t41 -41.5t16 -68.5v-357l256 233
h21l-210 -189l260 -311h-51l-243 280zM356 500v54q0 58 15 98q1 37 -26 68.5t-67 30.5q-51 -2 -80.5 -43.5t-29.5 -117.5v-90h188z" />
    <glyph glyph-name="f_h" horiz-adv-x="843" 
d="M586 510q106 7 156.5 -44t50.5 -119v-347h-55v335q0 25 -5.5 50.5t-20 55t-47 47t-79.5 14.5q-48 -3 -104 -51t-56 -92v-359h-55v657q0 52 -27 74t-66 20q-51 -2 -80.5 -43.5t-29.5 -117.5v-90h127v-6h-127v-494h-55v494h-63v6h63v54q0 104 47 154t118 50q22 0 44 -5.5
t47 -18.5t41 -41.5t16 -68.5v-193q73 73 160 79z" />
    <glyph glyph-name="f_j" horiz-adv-x="465" 
d="M168 590v-90h77v-6h-77v-494h-55v494h-63v6h63v54q0 104 47 154t118 50q44 0 78.5 -18t47.5 -38q-13 -13 -25.5 -15.5t-17.5 8.5q-26 57 -83 56q-51 -2 -80.5 -43.5t-29.5 -117.5zM357 500h55v-614q0 -71 -52.5 -97t-103.5 15l-2 3l1 3h3q48 -24 73.5 8t25.5 85v597z" />
    <glyph glyph-name="f_k" horiz-adv-x="803" 
d="M426 250v-208l6 -42h-61v657q0 52 -27 74t-66 20q-51 -2 -80.5 -43.5t-29.5 -117.5v-90h127v-6h-127v-494h-55v494h-63v6h63v54q0 104 47 154t118 50q22 0 44 -5.5t47 -18.5t41 -41.5t16 -68.5v-357l256 233h21l-210 -189l260 -311h-51l-243 280z" />
    <glyph glyph-name="t_t" horiz-adv-x="574" 
d="M455 500h69v-6h-69v-494h-55v494h-154v-494h-55v494h-141v6h141v188l55 13v-201h154v188l55 13v-201z" />
    </font>
</defs>
</svg>
